<?xml version="1.0" encoding="UTF-8"?>
<svg xmlns="http://www.w3.org/2000/svg" viewBox="0 0 1840 1050" width="1840" height="1050">
<defs>
  <marker id="arr" viewBox="0 0 10 10" refX="9" refY="5" markerWidth="7.5" markerHeight="7.5" orient="auto-start-reverse">
    <path d="M0 0 L10 5 L0 10 z" fill="#6B7280"/>
  </marker>
  <marker id="arrS" viewBox="0 0 10 10" refX="1" refY="5" markerWidth="7.5" markerHeight="7.5" orient="auto">
    <path d="M10 0 L0 5 L10 10 z" fill="#6B7280"/>
  </marker>
</defs>
<rect width="1840" height="1050" fill="#ffffff"/>
<rect x="250" y="42" width="1330" height="962" fill="none" stroke="#232F3E" stroke-width="1.6"/>
<rect x="250" y="42" width="46" height="46" fill="#232F3E"/>
<text x="273" y="72" text-anchor="middle" font-family="Helvetica Neue, Helvetica, Arial, sans-serif" font-size="15" font-weight="700" fill="#fff" font-style="italic">aws</text>
<text x="310" y="72" font-family="Helvetica Neue, Helvetica, Arial, sans-serif" font-size="17" font-weight="700" fill="#232F3E">AWS Cloud</text>
<text x="415" y="72" font-family="Helvetica Neue, Helvetica, Arial, sans-serif" font-size="12.5" fill="#545B64">eu-central-1 · 100% Terraform, 9 modules</text>
<rect x="290" y="112" width="320" height="260" fill="none" stroke="#8A93A2" stroke-width="1.2" stroke-dasharray="5,4"/>
<text x="302" y="134" font-family="Helvetica Neue, Helvetica, Arial, sans-serif" font-size="13.5" font-weight="600" fill="#545B64">Studio console</text>
<rect x="650" y="112" width="360" height="260" fill="none" stroke="#8A93A2" stroke-width="1.2" stroke-dasharray="5,4"/>
<text x="662" y="134" font-family="Helvetica Neue, Helvetica, Arial, sans-serif" font-size="13.5" font-weight="600" fill="#545B64">Serverless API</text>
<rect x="1050" y="112" width="500" height="330" fill="none" stroke="#8A93A2" stroke-width="1.2" stroke-dasharray="5,4"/>
<text x="1062" y="134" font-family="Helvetica Neue, Helvetica, Arial, sans-serif" font-size="13.5" font-weight="600" fill="#545B64">Order pipeline</text>
<rect x="650" y="430" width="360" height="250" fill="none" stroke="#8A93A2" stroke-width="1.2" stroke-dasharray="5,4"/>
<text x="662" y="452" font-family="Helvetica Neue, Helvetica, Arial, sans-serif" font-size="13.5" font-weight="600" fill="#545B64">Data</text>
<rect x="290" y="430" width="320" height="250" fill="none" stroke="#8A93A2" stroke-width="1.2" stroke-dasharray="5,4"/>
<text x="302" y="452" font-family="Helvetica Neue, Helvetica, Arial, sans-serif" font-size="13.5" font-weight="600" fill="#545B64">Multi-tenant hosting</text>
<rect x="650" y="740" width="200" height="230" fill="none" stroke="#8A93A2" stroke-width="1.2" stroke-dasharray="5,4"/>
<text x="662" y="762" font-family="Helvetica Neue, Helvetica, Arial, sans-serif" font-size="13.5" font-weight="600" fill="#545B64">Email</text>
<rect x="890" y="740" width="400" height="230" fill="none" stroke="#8A93A2" stroke-width="1.2" stroke-dasharray="5,4"/>
<text x="902" y="762" font-family="Helvetica Neue, Helvetica, Arial, sans-serif" font-size="13.5" font-weight="600" fill="#545B64">Operations</text>
<rect x="1330" y="740" width="220" height="230" fill="none" stroke="#8A93A2" stroke-width="1.2" stroke-dasharray="5,4"/>
<text x="1342" y="762" font-family="Helvetica Neue, Helvetica, Arial, sans-serif" font-size="13.5" font-weight="600" fill="#545B64">CI/CD landing</text>
<svg x="350" y="160" width="60" height="60" viewBox="0 0 80 80">
    <!-- Generator: Sketch 64 (93537) - https://sketch.com -->
    <title>Icon-Architecture/64/Arch_Amazon-CloudFront_64</title>
    <desc>Created with Sketch.</desc>
    <defs>
        <linearGradient x1="0%" y1="100%" x2="100%" y2="0%" id="linearGradient-1">
            <stop stop-color="#4D27A8" offset="0%"></stop>
            <stop stop-color="#A166FF" offset="100%"></stop>
        </linearGradient>
    </defs>
    <g id="Icon-Architecture/64/Arch_Amazon-CloudFront_64" stroke="none" stroke-width="1" fill="none" fill-rule="evenodd">
        <g id="Icon-Architecture-BG/64/Networking-Content-Delivery" fill="url(#linearGradient-1)">
            <rect id="Rectangle" x="0" y="0" width="80" height="80"></rect>
        </g>
        <path d="M55.122,52.123 C55.122,50.469 53.776,49.123 52.122,49.123 C50.468,49.123 49.122,50.469 49.122,52.123 C49.122,53.777 50.468,55.123 52.122,55.123 C53.776,55.123 55.122,53.777 55.122,52.123 L55.122,52.123 Z M57.122,52.123 C57.122,54.88 54.879,57.123 52.122,57.123 C49.365,57.123 47.122,54.88 47.122,52.123 C47.122,49.366 49.365,47.123 52.122,47.123 C54.879,47.123 57.122,49.366 57.122,52.123 L57.122,52.123 Z M30.392,37.692 C30.392,36.038 29.046,34.692 27.392,34.692 C25.737,34.692 24.392,36.038 24.392,37.692 C24.392,39.346 25.737,40.692 27.392,40.692 C29.046,40.692 30.392,39.346 30.392,37.692 L30.392,37.692 Z M32.392,37.692 C32.392,40.449 30.148,42.692 27.392,42.692 C24.635,42.692 22.392,40.449 22.392,37.692 C22.392,34.935 24.635,32.692 27.392,32.692 C30.148,32.692 32.392,34.935 32.392,37.692 L32.392,37.692 Z M39.73,22.007 C39.73,23.661 41.076,25.007 42.73,25.007 C44.385,25.007 45.73,23.661 45.73,22.007 C45.73,20.352 44.385,19.007 42.73,19.007 C41.076,19.007 39.73,20.352 39.73,22.007 L39.73,22.007 Z M37.73,22.007 C37.73,19.25 39.974,17.007 42.73,17.007 C45.487,17.007 47.73,19.25 47.73,22.007 C47.73,24.764 45.487,27.007 42.73,27.007 C39.974,27.007 37.73,24.764 37.73,22.007 L37.73,22.007 Z M66,40 C66,30.727 61.028,22.148 53.012,17.509 C51.575,17.799 50.185,18.196 48.451,18.823 L47.771,16.942 C48.676,16.616 49.486,16.352 50.266,16.126 C47.046,14.737 43.548,14 40,14 C38.311,14 36.649,14.175 35.025,14.492 C36.201,15.18 37.244,15.866 38.257,16.634 L37.048,18.227 C35.62,17.145 34.14,16.228 32.197,15.21 C22.378,18.298 15.306,26.958 14.183,37.128 C16.242,36.711 18.219,36.484 20.414,36.43 L20.463,38.429 C18.163,38.486 16.187,38.73 14.027,39.205 C14.018,39.47 14,39.738 14,40 C14,48.658 18.283,56.636 25.327,61.447 C24.074,57.716 23.45,54.19 23.45,50.746 C23.45,48.782 23.788,47.169 24.145,45.462 C24.228,45.067 24.312,44.665 24.394,44.248 L26.357,44.635 C26.273,45.059 26.187,45.47 26.103,45.873 C25.753,47.545 25.45,48.989 25.45,50.746 C25.45,54.654 26.308,58.695 28.054,63.083 C31.773,65.014 35.789,66 40,66 C42.756,66 45.446,65.56 48.012,64.714 C49.019,62.727 49.766,60.852 50.39,58.699 L52.311,59.256 C51.855,60.826 51.332,62.253 50.709,63.677 C52.323,62.951 53.85,62.053 55.283,61.005 C54.938,60.159 54.568,59.318 54.159,58.499 L55.948,57.604 C56.296,58.3 56.615,59.012 56.92,59.728 C62.705,54.775 66,47.66 66,40 L66,40 Z M68,40 C68,48.727 64.034,56.799 57.121,62.149 C55.409,63.479 53.552,64.583 51.589,65.472 C50.756,65.85 49.908,66.2 49.036,66.494 C46.156,67.493 43.113,68 40,68 C35.4,68 30.832,66.854 26.788,64.686 C17.667,59.806 12,50.347 12,40 C12,39.314 12.018,38.792 12.059,38.309 C12.74,26.625 20.756,16.512 32.001,13.166 C34.562,12.393 37.255,12 40,12 C44.808,12 49.539,13.238 53.684,15.579 C62.513,20.525 68,29.884 68,40 L68,40 Z M37.314,25.463 L36,23.956 C33.758,25.912 32.014,27.989 29.977,31.126 L31.655,32.215 C33.583,29.244 35.223,27.288 37.314,25.463 L37.314,25.463 Z M34.275,38.427 L33.625,40.318 C38.218,41.895 42.225,44.411 46.234,48.236 L47.615,46.789 C43.389,42.758 39.15,40.101 34.275,38.427 L34.275,38.427 Z M47.646,26.668 C51.398,32.39 53.511,38.671 53.925,45.338 L51.929,45.462 C51.536,39.146 49.533,33.192 45.975,27.765 L47.646,26.668 Z" id="Amazon-CloudFront_Icon_64_Squid" fill="#FFFFFF"></path>
    </g>
</svg>
<text x="380" y="236" text-anchor="middle" font-family="Helvetica Neue, Helvetica, Arial, sans-serif" font-size="11.5" fill="#232F3E">CloudFront</text>
<text x="380" y="250" text-anchor="middle" font-family="Helvetica Neue, Helvetica, Arial, sans-serif" font-size="11.5" fill="#232F3E">app distribution</text>
<svg x="500" y="160" width="60" height="60" viewBox="0 0 80 80">
    <title>Icon-Architecture/64/Arch_Amazon-Simple-Storage-Service_64</title>
    <defs>
        <linearGradient x1="0%" y1="100%" x2="100%" y2="0%" id="linearGradient-1">
            <stop stop-color="#1B660F" offset="0%"></stop>
            <stop stop-color="#6CAE3E" offset="100%"></stop>
        </linearGradient>
    </defs>
    <g id="Icon-Architecture/64/Arch_Amazon-Simple-Storage-Service_64" stroke="none" stroke-width="1" fill="none" fill-rule="evenodd">
        <g id="Rectangle" fill="url(#linearGradient-1)">
            <rect x="0" y="0" width="80" height="80"></rect>
        </g>
        <g id="Icon-Service/64/Amazon-Simple-Storage-Service_64" transform="translate(8.000000, 8.000000)" fill="#FFFFFF">
            <path d="M52.8359,34.8926 L53.2199,32.1886 C56.7609,34.3096 56.8069,35.1856 56.8059132,35.2096 C56.7999,35.2146 56.1959,35.7186 52.8359,34.8926 L52.8359,34.8926 Z M50.8929,34.3526 C44.7729,32.5006 36.2499,28.5906 32.8009,26.9606 C32.8009,26.9466 32.8049,26.9336 32.8049,26.9196 C32.8049,25.5946 31.7269,24.5166 30.4009,24.5166 C29.0769,24.5166 27.9989,25.5946 27.9989,26.9196 C27.9989,28.2446 29.0769,29.3226 30.4009,29.3226 C30.9829,29.3226 31.5109,29.1056 31.9279,28.7606 C35.9859,30.6816 44.4429,34.5346 50.6079,36.3546 L48.1699,53.5606 C48.1629,53.6076 48.1599,53.6546 48.1599,53.7016 C48.1599,55.2166 41.4529,57.9996 30.4939,57.9996 C19.4189,57.9996 12.6409,55.2166 12.6409,53.7016 C12.6409,53.6556 12.6379,53.6106 12.6319,53.5656 L7.5379,16.3586 C11.9469,19.3936 21.4299,20.9996 30.4999,20.9996 C39.5559,20.9996 49.0229,19.3996 53.4409,16.3736 L50.8929,34.3526 Z M6.9999,12.4776 C7.0719,11.1616 14.6339,5.9996 30.4999,5.9996 C46.3639,5.9996 53.9269,11.1606 53.9999,12.4776 L53.9999,12.9266 C53.1299,15.8776 43.3299,18.9996 30.4999,18.9996 C17.6479,18.9996 7.8429,15.8676 6.9999,12.9126 L6.9999,12.4776 Z M55.9999,12.4996 C55.9999,9.0346 46.0659,3.9996 30.4999,3.9996 C14.9339,3.9996 4.9999,9.0346 4.9999,12.4996 L5.0939,13.2536 L10.6419,53.7776 C10.7749,58.3096 22.8609,59.9996 30.4939,59.9996 C39.9659,59.9996 50.0289,57.8216 50.1589,53.7806 L52.5549,36.8836 C53.8879,37.2026 54.9849,37.3656 55.8659,37.3656 C57.0489,37.3656 57.8489,37.0766 58.3339,36.4986 C58.7319,36.0246 58.8839,35.4506 58.7699,34.8396 C58.5109,33.4556 56.8679,31.9636 53.5219,30.0546 L55.8979,13.2926 L55.9999,12.4996 Z" id="Amazon-Simple-Storage-Service-Icon_64_Squid"></path>
        </g>
    </g>
</svg>
<text x="530" y="236" text-anchor="middle" font-family="Helvetica Neue, Helvetica, Arial, sans-serif" font-size="11.5" fill="#232F3E">S3 bucket</text>
<text x="530" y="250" text-anchor="middle" font-family="Helvetica Neue, Helvetica, Arial, sans-serif" font-size="11.5" fill="#232F3E">app shell</text>
<svg x="429" y="275" width="52" height="52" viewBox="0 0 128 128"><g fill="#61DAFB"><circle cx="64" cy="64" r="11.4"/><path d="M107.3 45.2c-2.2-.8-4.5-1.6-6.9-2.3.6-2.4 1.1-4.8 1.5-7.1 2.1-13.2-.2-22.5-6.6-26.1-1.9-1.1-4-1.6-6.4-1.6-7 0-15.9 5.2-24.9 13.9-9-8.7-17.9-13.9-24.9-13.9-2.4 0-4.5.5-6.4 1.6-6.4 3.7-8.7 13-6.6 26.1.4 2.3.9 4.7 1.5 7.1-2.4.7-4.7 1.4-6.9 2.3C8.2 50 1.4 56.6 1.4 64s6.9 14 19.3 18.8c2.2.8 4.5 1.6 6.9 2.3-.6 2.4-1.1 4.8-1.5 7.1-2.1 13.2.2 22.5 6.6 26.1 1.9 1.1 4 1.6 6.4 1.6 7.1 0 16-5.2 24.9-13.9 9 8.7 17.9 13.9 24.9 13.9 2.4 0 4.5-.5 6.4-1.6 6.4-3.7 8.7-13 6.6-26.1-.4-2.3-.9-4.7-1.5-7.1 2.4-.7 4.7-1.4 6.9-2.3 12.5-4.8 19.3-11.4 19.3-18.8s-6.8-14-19.3-18.8zM92.5 14.7c4.1 2.4 5.5 9.8 3.8 20.3-.3 2.1-.8 4.3-1.4 6.6-5.2-1.2-10.7-2-16.5-2.5-3.4-4.8-6.9-9.1-10.4-13 7.4-7.3 14.9-12.3 21-12.3 1.3 0 2.5.3 3.5.9zM81.3 74c-1.8 3.2-3.9 6.4-6.1 9.6-3.7.3-7.4.4-11.2.4-3.9 0-7.6-.1-11.2-.4-2.2-3.2-4.2-6.4-6-9.6-1.9-3.3-3.7-6.7-5.3-10 1.6-3.3 3.4-6.7 5.3-10 1.8-3.2 3.9-6.4 6.1-9.6 3.7-.3 7.4-.4 11.2-.4 3.9 0 7.6.1 11.2.4 2.2 3.2 4.2 6.4 6 9.6 1.9 3.3 3.7 6.7 5.3 10-1.7 3.3-3.4 6.6-5.3 10zm8.3-3.3c1.5 3.5 2.7 6.9 3.8 10.3-3.4.8-7 1.4-10.8 1.9 1.2-1.9 2.5-3.9 3.6-6 1.2-2.1 2.3-4.2 3.4-6.2zM64 97.8c-2.4-2.6-4.7-5.4-6.9-8.3 2.3.1 4.6.2 6.9.2 2.3 0 4.6-.1 6.9-.2-2.2 2.9-4.5 5.7-6.9 8.3zm-18.6-15c-3.8-.5-7.4-1.1-10.8-1.9 1.1-3.3 2.3-6.8 3.8-10.3 1.1 2 2.2 4.1 3.4 6.1 1.2 2.2 2.4 4.1 3.6 6.1zm-7-25.5c-1.5-3.5-2.7-6.9-3.8-10.3 3.4-.8 7-1.4 10.8-1.9-1.2 1.9-2.5 3.9-3.6 6-1.2 2.1-2.3 4.2-3.4 6.2zM64 30.2c2.4 2.6 4.7 5.4 6.9 8.3-2.3-.1-4.6-.2-6.9-.2-2.3 0-4.6.1-6.9.2 2.2-2.9 4.5-5.7 6.9-8.3zm22.2 21l-3.6-6c3.8.5 7.4 1.1 10.8 1.9-1.1 3.3-2.3 6.8-3.8 10.3-1.1-2.1-2.2-4.2-3.4-6.2zM31.7 35c-1.7-10.5-.3-17.9 3.8-20.3 1-.6 2.2-.9 3.5-.9 6 0 13.5 4.9 21 12.3-3.5 3.8-7 8.2-10.4 13-5.8.5-11.3 1.4-16.5 2.5-.6-2.3-1-4.5-1.4-6.6zM7 64c0-4.7 5.7-9.7 15.7-13.4 2-.8 4.2-1.5 6.4-2.1 1.6 5 3.6 10.3 6 15.6-2.4 5.3-4.5 10.5-6 15.5C15.3 75.6 7 69.6 7 64zm28.5 49.3c-4.1-2.4-5.5-9.8-3.8-20.3.3-2.1.8-4.3 1.4-6.6 5.2 1.2 10.7 2 16.5 2.5 3.4 4.8 6.9 9.1 10.4 13-7.4 7.3-14.9 12.3-21 12.3-1.3 0-2.5-.3-3.5-.9zM96.3 93c1.7 10.5.3 17.9-3.8 20.3-1 .6-2.2.9-3.5.9-6 0-13.5-4.9-21-12.3 3.5-3.8 7-8.2 10.4-13 5.8-.5 11.3-1.4 16.5-2.5.6 2.3 1 4.5 1.4 6.6zm9-15.6c-2 .8-4.2 1.5-6.4 2.1-1.6-5-3.6-10.3-6-15.6 2.4-5.3 4.5-10.5 6-15.5 13.8 4 22.1 10 22.1 15.6 0 4.7-5.8 9.7-15.7 13.4z"/></g></svg>
<text x="455" y="343" text-anchor="middle" font-family="Helvetica Neue, Helvetica, Arial, sans-serif" font-size="11.5" fill="#232F3E">React + Vite SPA</text>
<text x="455" y="357" text-anchor="middle" font-family="Helvetica Neue, Helvetica, Arial, sans-serif" font-size="11.5" fill="#232F3E">console + landing</text>
<path d="M413 190 L497 190" fill="none" stroke="#6B7280" stroke-width="1.6"  marker-end="url(#arr)" marker-start="url(#arrS)"/>
<svg x="700" y="160" width="60" height="60" viewBox="0 0 80 80">
    <title>Icon-Architecture/64/Arch_ Amazon-API-Gateway_64</title>
    <defs>
        <linearGradient x1="0%" y1="100%" x2="100%" y2="0%" id="linearGradient-1">
            <stop stop-color="#B0084D" offset="0%"></stop>
            <stop stop-color="#FF4F8B" offset="100%"></stop>
        </linearGradient>
    </defs>
    <g id="Icon-Architecture/64/Arch_-Amazon-API-Gateway_64" stroke="none" stroke-width="1" fill="none" fill-rule="evenodd">
        <g id="Rectangle" fill="url(#linearGradient-1)">
            <rect x="0" y="0" width="80" height="80"></rect>
        </g>
        <g id="Icon-Service/64/Amazon-API-Gateway_64" transform="translate(8.000000, 8.000000)" fill="#FFFFFF">
            <path d="M26.065,47.6323642 L29,47.6323642 L29,45.6152989 L26.065,45.6152989 L26.065,47.6323642 Z M31,47.6323642 L34,47.6323642 L34,45.6152989 L31,45.6152989 L31,47.6323642 Z M19,6.62946112 L6,13.082053 L6,53.1934132 L19,57.589607 L19,6.62946112 Z M21,19.3934502 L21,45.6152989 L24,45.6152989 L24,47.6323642 L21,47.6323642 L21,58.9914674 C21,59.3162149 20.845,59.6207917 20.584,59.8103959 C20.412,59.9354539 20.207,60 20,60 C19.894,60 19.786,59.9828549 19.682,59.9475563 L4.682,54.8756456 C4.274,54.7374767 4,54.3522172 4,53.9195567 L4,12.4537371 C4,12.0704947 4.217,11.7185168 4.559,11.5490833 L19.559,4.10409539 C19.868,3.94978989 20.235,3.96794348 20.528,4.15250495 C20.821,4.33605789 21,4.65979687 21,5.00874917 L21,17.376385 L24,17.376385 L24,19.3934502 L21,19.3934502 Z M36,47.6323642 L39,47.6323642 L39,45.6152989 L36,45.6152989 L36,47.6323642 Z M36.065,19.3934502 L39,19.3934502 L39,17.376385 L36.065,17.376385 L36.065,19.3934502 Z M31.065,19.3934502 L34,19.3934502 L34,17.376385 L31.065,17.376385 L31.065,19.3934502 Z M26.065,19.3934502 L29,19.3934502 L29,17.376385 L26.065,17.376385 L26.065,19.3934502 Z M58,13.082053 L45,6.62946112 L45,57.589607 L58,53.1934132 L58,13.082053 Z M60,53.9195567 C60,54.3522172 59.726,54.7374767 59.318,54.8756456 L44.318,59.9475563 C44.214,59.9828549 44.106,60 44,60 C43.793,60 43.588,59.9354539 43.416,59.8103959 C43.155,59.6207917 43,59.3162149 43,58.9914674 L43,47.6323642 L41.065,47.6323642 L41.065,45.6152989 L43,45.6152989 L43,19.3934502 L41.065,19.3934502 L41.065,17.376385 L43,17.376385 L43,5.00874917 C43,4.65979687 43.179,4.33605789 43.472,4.15250495 C43.765,3.96794348 44.131,3.94978989 44.441,4.10409539 L59.441,11.5490833 C59.783,11.7185168 60,12.0704947 60,12.4537371 L60,53.9195567 Z M34.934,25.8067093 L33.066,25.0825829 L28.066,38.1935072 L29.934,38.9176337 L34.934,25.8067093 Z M41.707,32.2088745 C42.098,31.8145383 42.098,31.1761371 41.707,30.7828094 L37.707,26.7486788 L36.293,28.174744 L39.586,31.4958419 L36.293,34.8169399 L37.707,36.2430051 L41.707,32.2088745 Z M26.293,36.2430051 L22.293,32.2088745 C21.902,31.8145383 21.902,31.1761371 22.293,30.7828094 L26.293,26.7486788 L27.707,28.174744 L24.414,31.4958419 L27.707,34.8169399 L26.293,36.2430051 Z" id="Amazon-API-Gateway_Icon_64_Squid"></path>
        </g>
    </g>
</svg>
<text x="730" y="236" text-anchor="middle" font-family="Helvetica Neue, Helvetica, Arial, sans-serif" font-size="11.5" fill="#232F3E">API Gateway</text>
<text x="730" y="250" text-anchor="middle" font-family="Helvetica Neue, Helvetica, Arial, sans-serif" font-size="11.5" fill="#232F3E">HTTP API · JWT</text>
<svg x="860" y="160" width="60" height="60" viewBox="0 0 80 80">
    <!-- Generator: Sketch 64 (93537) - https://sketch.com -->
    <title>Icon-Architecture/64/Arch_AWS-Lambda_64</title>
    <desc>Created with Sketch.</desc>
    <defs>
        <linearGradient x1="0%" y1="100%" x2="100%" y2="0%" id="linearGradient-1">
            <stop stop-color="#C8511B" offset="0%"></stop>
            <stop stop-color="#FF9900" offset="100%"></stop>
        </linearGradient>
    </defs>
    <g id="Icon-Architecture/64/Arch_AWS-Lambda_64" stroke="none" stroke-width="1" fill="none" fill-rule="evenodd">
        <g id="Icon-Architecture-BG/64/Compute" fill="url(#linearGradient-1)">
            <rect id="Rectangle" x="0" y="0" width="80" height="80"></rect>
        </g>
        <path d="M28.0075352,66 L15.5907274,66 L29.3235885,37.296 L35.5460249,50.106 L28.0075352,66 Z M30.2196674,34.553 C30.0512768,34.208 29.7004629,33.989 29.3175745,33.989 L29.3145676,33.989 C28.9286723,33.99 28.5778583,34.211 28.4124746,34.558 L13.097944,66.569 C12.9495999,66.879 12.9706487,67.243 13.1550766,67.534 C13.3374998,67.824 13.6582439,68 14.0020416,68 L28.6420072,68 C29.0299071,68 29.3817234,67.777 29.5481094,67.428 L37.563706,50.528 C37.693006,50.254 37.6920037,49.937 37.5586944,49.665 L30.2196674,34.553 Z M64.9953491,66 L52.6587274,66 L32.866809,24.57 C32.7014253,24.222 32.3486067,24 31.9617091,24 L23.8899822,24 L23.8990031,14 L39.7197081,14 L59.4204149,55.429 C59.5857986,55.777 59.9386172,56 60.3255148,56 L64.9953491,56 L64.9953491,66 Z M65.9976745,54 L60.9599868,54 L41.25928,12.571 C41.0938963,12.223 40.7410777,12 40.3531778,12 L22.89768,12 C22.3453987,12 21.8963569,12.447 21.8953545,12.999 L21.884329,24.999 C21.884329,25.265 21.9885708,25.519 22.1780103,25.707 C22.3654452,25.895 22.6200358,26 22.8866544,26 L31.3292417,26 L51.1221625,67.43 C51.2885485,67.778 51.6393624,68 52.02626,68 L65.9976745,68 C66.5519605,68 67,67.552 67,67 L67,55 C67,54.448 66.5519605,54 65.9976745,54 L65.9976745,54 Z" id="AWS-Lambda_Icon_64_Squid" fill="#FFFFFF"></path>
    </g>
</svg>
<text x="890" y="236" text-anchor="middle" font-family="Helvetica Neue, Helvetica, Arial, sans-serif" font-size="11.5" fill="#232F3E">Lambda router</text>
<text x="890" y="250" text-anchor="middle" font-family="Helvetica Neue, Helvetica, Arial, sans-serif" font-size="11.5" fill="#232F3E">41 routes · Node 20</text>
<svg x="704" y="275" width="52" height="52" viewBox="0 0 80 80">
    <!-- Generator: Sketch 64 (93537) - https://sketch.com -->
    <title>Icon-Architecture/64/Arch_Amazon-Cognito_64</title>
    <desc>Created with Sketch.</desc>
    <defs>
        <linearGradient x1="0%" y1="100%" x2="100%" y2="0%" id="linearGradient-1">
            <stop stop-color="#BD0816" offset="0%"></stop>
            <stop stop-color="#FF5252" offset="100%"></stop>
        </linearGradient>
    </defs>
    <g id="Icon-Architecture/64/Arch_Amazon-Cognito_64" stroke="none" stroke-width="1" fill="none" fill-rule="evenodd">
        <g id="Icon-Architecture-BG/64/Security-Identity-Compliance" fill="url(#linearGradient-1)">
            <rect id="Rectangle" x="0" y="0" width="80" height="80"></rect>
        </g>
        <path d="M16.9635609,35.8079225 L29.8688192,35.8079225 L29.8688192,33.8253841 L16.9635609,33.8253841 L16.9635609,35.8079225 Z M61.3755183,50.2308895 L62.7792133,51.6325441 L55.4073327,58.9937093 C55.2127611,59.1870067 54.9586268,59.2841511 54.7054852,59.2841511 C54.4513509,59.2841511 54.1972166,59.1870067 54.0036377,58.9937093 L50.294865,55.2913188 L51.69856,53.8896641 L54.7054852,56.8912273 L61.3755183,50.2308895 Z M65.9439798,55.6937741 C65.7176414,57.5573602 64.9592093,59.29109 63.7471077,60.708605 C62.8864262,61.7157345 61.7994064,62.5484006 60.604181,63.1154066 C59.0009508,63.8757101 57.2200251,64.1641694 55.4460485,63.9480727 C53.7207147,63.7379237 52.0946522,63.057913 50.7396,61.9823859 C48.1367087,59.9155896 46.8223578,56.7108163 47.2224208,53.4088985 C47.6006441,50.2883831 49.4917608,47.5663578 52.2802893,46.127035 C53.6164799,45.4381029 55.0797377,45.0842198 56.5697987,45.0842198 C56.9519928,45.0842198 57.3371652,45.1080102 57.7213448,45.1545999 C60.8344902,45.534256 63.549558,47.4365016 64.9810489,50.2427847 C65.839745,51.9259598 66.1723036,53.8113538 65.9439798,55.6937741 L65.9439798,55.6937741 Z M66.750062,49.3437035 C65.0177793,45.9476152 61.731902,43.6458881 57.9615811,43.1869305 C55.6813213,42.9083838 53.4030468,43.3167868 51.3689796,44.3655496 C47.9957436,46.1062183 45.7085347,49.3982233 45.2508944,53.1709939 C44.7684363,57.1608525 46.3577685,61.0357238 49.5046661,63.5347135 C51.1456193,64.8372412 53.1171457,65.6609859 55.2048194,65.9157421 C55.6674233,65.9722445 56.1300272,66 56.5916383,66 C58.2713073,66 59.9301294,65.6292653 61.455928,64.9056388 C62.9023096,64.2196805 64.2176533,63.212551 65.2570229,61.9952724 C66.7232588,60.2803767 67.6425103,58.1838423 67.9155061,55.9316787 C68.1914801,53.6567158 67.788439,51.3787792 66.750062,49.3437035 L66.750062,49.3437035 Z M26.8906827,41.7555378 L30.8615314,41.7555378 L30.8615314,39.7729994 L26.8906827,39.7729994 L26.8906827,41.7555378 Z M16.9635609,41.7555378 L24.9052583,41.7555378 L24.9052583,39.7729994 L16.9635609,39.7729994 L16.9635609,41.7555378 Z M16.1058576,15.9825384 L60.5078879,15.9825384 C61.6773028,15.9825384 62.6283211,17.1393496 62.6283211,18.5608296 L62.6283211,25.8952305 L59.6501845,25.8952305 L59.6501845,20.9388844 C59.6501845,20.3917038 59.2064422,19.9476152 58.6574724,19.9476152 L35.8250923,19.9476152 C35.2761224,19.9476152 34.8323801,20.3917038 34.8323801,20.9388844 L34.8323801,25.8952305 L13.9854244,25.8952305 L13.9854244,18.5608296 C13.9854244,17.16314 14.9572896,15.9825384 16.1058576,15.9825384 L16.1058576,15.9825384 Z M47.256173,25.6077624 C49.5612507,25.6077624 51.436484,27.4614358 51.436484,29.7393725 C51.436484,31.2411453 50.6075693,32.6229746 49.2733642,33.3466011 C48.0066634,34.0335507 46.4798721,34.0246292 45.2300474,33.3475924 C43.9008058,32.6219833 43.075862,31.240154 43.075862,29.7393725 C43.075862,27.4614358 44.9501026,25.6077624 47.256173,25.6077624 L47.256173,25.6077624 Z M13.9854244,47.1083915 L13.9854244,27.8777689 L34.8323801,27.8777689 L34.8323801,44.7293454 C34.8323801,45.2775173 35.2761224,45.7206146 35.8250923,45.7206146 L46.2029054,45.7206146 L46.2029054,43.7380762 L37.9117733,43.7380762 C37.9981392,39.7710168 40.6357755,36.3441992 44.4338923,35.249838 C46.1890074,36.0696176 48.2846228,36.0775478 50.0665412,35.2488467 C52.2286683,35.8733463 54.1207777,37.3176255 55.2931708,39.2535743 L56.9917013,38.2266194 C55.7885342,36.2430897 53.9629365,34.6947272 51.8454814,33.7946548 C52.8381936,32.694346 53.4219083,31.2629532 53.4219083,29.7393725 C53.4219083,26.3680659 50.6552195,23.625224 47.256173,23.625224 C43.8561338,23.625224 41.0904377,26.3680659 41.0904377,29.7393725 C41.0904377,31.2570056 41.6681962,32.683442 42.6539593,33.7837508 C40.0004397,34.8999199 37.9276567,36.9924892 36.8178045,39.572763 L36.8178045,21.9301536 L57.6647602,21.9301536 L57.6647602,37.7904609 L59.6501845,37.7904609 L59.6501845,27.8777689 L62.6283211,27.8777689 L62.6293138,42.746807 L64.6147382,42.746807 L64.6137454,18.5608296 C64.6137454,16.0459796 62.7722643,14 60.5078879,14 L16.1058576,14 C13.8414811,14 12,16.0459796 12,18.5608296 L12,47.1083915 C12,49.6232415 13.8414811,51.6682298 16.1058576,51.6682298 L42.7740775,51.6682298 L42.7740775,49.6856914 L16.1058576,49.6856914 C14.9572896,49.6856914 13.9854244,48.5060811 13.9854244,47.1083915 L13.9854244,47.1083915 Z" id="Amazon-Cognito_Icon_64_Squid" fill="#FFFFFF"></path>
    </g>
</svg>
<text x="730" y="343" text-anchor="middle" font-family="Helvetica Neue, Helvetica, Arial, sans-serif" font-size="11.5" fill="#232F3E">Cognito</text>
<text x="730" y="357" text-anchor="middle" font-family="Helvetica Neue, Helvetica, Arial, sans-serif" font-size="11.5" fill="#232F3E">user pool</text>
<svg x="808" y="282" width="44" height="44" viewBox="0 0 80 80">
    <!-- Generator: Sketch 64 (93537) - https://sketch.com -->
    <title>Icon-Architecture/64/Arch_AWS-Lambda_64</title>
    <desc>Created with Sketch.</desc>
    <defs>
        <linearGradient x1="0%" y1="100%" x2="100%" y2="0%" id="linearGradient-1">
            <stop stop-color="#C8511B" offset="0%"></stop>
            <stop stop-color="#FF9900" offset="100%"></stop>
        </linearGradient>
    </defs>
    <g id="Icon-Architecture/64/Arch_AWS-Lambda_64" stroke="none" stroke-width="1" fill="none" fill-rule="evenodd">
        <g id="Icon-Architecture-BG/64/Compute" fill="url(#linearGradient-1)">
            <rect id="Rectangle" x="0" y="0" width="80" height="80"></rect>
        </g>
        <path d="M28.0075352,66 L15.5907274,66 L29.3235885,37.296 L35.5460249,50.106 L28.0075352,66 Z M30.2196674,34.553 C30.0512768,34.208 29.7004629,33.989 29.3175745,33.989 L29.3145676,33.989 C28.9286723,33.99 28.5778583,34.211 28.4124746,34.558 L13.097944,66.569 C12.9495999,66.879 12.9706487,67.243 13.1550766,67.534 C13.3374998,67.824 13.6582439,68 14.0020416,68 L28.6420072,68 C29.0299071,68 29.3817234,67.777 29.5481094,67.428 L37.563706,50.528 C37.693006,50.254 37.6920037,49.937 37.5586944,49.665 L30.2196674,34.553 Z M64.9953491,66 L52.6587274,66 L32.866809,24.57 C32.7014253,24.222 32.3486067,24 31.9617091,24 L23.8899822,24 L23.8990031,14 L39.7197081,14 L59.4204149,55.429 C59.5857986,55.777 59.9386172,56 60.3255148,56 L64.9953491,56 L64.9953491,66 Z M65.9976745,54 L60.9599868,54 L41.25928,12.571 C41.0938963,12.223 40.7410777,12 40.3531778,12 L22.89768,12 C22.3453987,12 21.8963569,12.447 21.8953545,12.999 L21.884329,24.999 C21.884329,25.265 21.9885708,25.519 22.1780103,25.707 C22.3654452,25.895 22.6200358,26 22.8866544,26 L31.3292417,26 L51.1221625,67.43 C51.2885485,67.778 51.6393624,68 52.02626,68 L65.9976745,68 C66.5519605,68 67,67.552 67,67 L67,55 C67,54.448 66.5519605,54 65.9976745,54 L65.9976745,54 Z" id="AWS-Lambda_Icon_64_Squid" fill="#FFFFFF"></path>
    </g>
</svg>
<text x="830" y="342" text-anchor="middle" font-family="Helvetica Neue, Helvetica, Arial, sans-serif" font-size="11.5" fill="#232F3E">auth-mailer</text>
<text x="830" y="356" text-anchor="middle" font-family="Helvetica Neue, Helvetica, Arial, sans-serif" font-size="11.5" fill="#232F3E">triggers</text>
<path d="M763 190 L857 190" fill="none" stroke="#6B7280" stroke-width="1.6"  marker-end="url(#arr)" />
<circle cx="810" cy="176" r="12.5" fill="#111827"/>
<text x="810" y="180.5" text-anchor="middle" font-family="Helvetica Neue, Helvetica, Arial, sans-serif" font-size="13" font-weight="700" fill="#fff">3</text>
<path d="M730 262 L730 224" fill="none" stroke="#6B7280" stroke-width="1.6"  marker-end="url(#arr)" />
<path d="M759 292 L804 296" fill="none" stroke="#6B7280" stroke-width="1.6"  marker-end="url(#arr)" />
<circle cx="781" cy="278" r="12.5" fill="#111827"/>
<text x="781" y="282.5" text-anchor="middle" font-family="Helvetica Neue, Helvetica, Arial, sans-serif" font-size="13" font-weight="700" fill="#fff">13</text>
<svg x="1090" y="160" width="60" height="60" viewBox="0 0 80 80">
    <!-- Generator: Sketch 64 (93537) - https://sketch.com -->
    <title>Icon-Architecture/64/Arch_AWS-Simple-Queue-Service_64</title>
    <desc>Created with Sketch.</desc>
    <defs>
        <linearGradient x1="0%" y1="100%" x2="100%" y2="0%" id="linearGradient-1">
            <stop stop-color="#B0084D" offset="0%"></stop>
            <stop stop-color="#FF4F8B" offset="100%"></stop>
        </linearGradient>
    </defs>
    <g id="Icon-Architecture/64/Arch_AWS-Simple-Queue-Service_64" stroke="none" stroke-width="1" fill="none" fill-rule="evenodd">
        <g id="Icon-Architecture-BG/64/Application-Integration" fill="url(#linearGradient-1)">
            <rect id="Rectangle" x="0" y="0" width="80" height="80"></rect>
        </g>
        <path d="M28.7169966,43.6876756 L31.7189265,40.721826 C31.9070474,40.5359011 32.0131156,40.2833614 32.0141233,40.019885 C32.0151169,39.7564086 31.9100493,39.5028747 31.722929,39.3159556 L28.7209992,36.3163014 L27.3020871,37.7181948 L28.5899149,39.0057494 L24.0089701,39.0057494 L24.0089701,40.9942506 L28.6059252,40.9942506 L27.3060896,42.2778282 L28.7169966,43.6876756 Z M51.627725,43.7781524 L55.630298,40.793412 C55.8804589,40.6054986 56.0295547,40.3112004 56.0295547,39.9990057 C56.0295547,39.6858168 55.8804589,39.3905244 55.6292974,39.202611 L51.6267243,36.2218476 L50.4259524,37.8126486 L52.0269816,39.0057494 L48.0244085,39.0057494 L48.0244085,40.9942506 L52.025981,40.9942506 L50.4249518,42.1873514 L51.627725,43.7781524 Z M35.2081695,40 C35.2081695,42.1107941 34.8429347,44.1012839 34.160496,45.8332685 C35.9606533,45.14127 37.9909585,44.7952708 40.0192624,44.7952708 C42.0475663,44.7952708 44.0778715,45.14127 45.8770281,45.8332685 C45.19559,44.1012839 44.8303552,42.1107941 44.8303552,40 C44.8303552,37.8892059 45.19559,35.8997104 45.8770281,34.1667315 C42.2777142,35.5497341 37.7608105,35.5497341 34.160496,34.1667315 C34.8429347,35.8997104 35.2081695,37.8892059 35.2081695,40 L35.2081695,40 Z M30.3060182,49.6511909 C30.1108927,49.4573121 30.0128297,49.2027839 30.0128297,48.9482557 C30.0128297,48.6937276 30.1108927,48.4391994 30.3060182,48.2453205 C32.1221857,46.4407556 33.206883,43.3575844 33.206883,40 C33.206883,36.6424156 32.1221857,33.5592444 30.3060182,31.7546795 C30.1108927,31.5608006 30.0128297,31.3062724 30.0128297,31.0517443 C30.0128297,30.7972161 30.1108927,30.5426879 30.3060182,30.3488091 C30.6972697,29.9600571 31.3296762,29.9600571 31.7209277,30.3488091 C35.5984204,34.2015303 44.4401044,34.2015303 48.317597,30.3488091 C48.7088485,29.9600571 49.3412551,29.9600571 49.7325066,30.3488091 C49.927632,30.5426879 50.0256951,30.7972161 50.0256951,31.0517443 C50.0256951,31.3062724 49.927632,31.5608006 49.7325066,31.7546795 C47.9163391,33.5592444 46.8316418,36.6424156 46.8316418,40 C46.8316418,43.3575844 47.9163391,46.4407556 49.7325066,48.2453205 C49.927632,48.4391994 50.0256951,48.6937276 50.0256951,48.9482557 C50.0256951,49.2027839 49.927632,49.4573121 49.7325066,49.6511909 C49.5373812,49.8450698 49.2812165,49.9425064 49.0250518,49.9425064 C48.7688871,49.9425064 48.5127225,49.8450698 48.317597,49.6511909 C44.4401044,45.7984697 35.5984204,45.7984697 31.7209277,49.6511909 C31.3296762,50.0399429 30.6972697,50.0399429 30.3060182,49.6511909 L30.3060182,49.6511909 Z M66.0009649,40.0049713 C66.0009649,39.0783297 65.6377314,38.2073661 64.9783075,37.5521549 C64.2978701,36.8750702 63.403295,36.5380193 62.5097205,36.5380193 C61.6161461,36.5380193 60.721571,36.8750702 60.0411336,37.5521549 C58.6792581,38.9043358 58.6792581,41.1046125 60.0411336,42.4577876 C61.4020084,43.8099684 63.6154313,43.8109627 64.9783075,42.4577876 C65.6377314,41.8025764 66.0009649,40.9316128 66.0009649,40.0049713 L66.0009649,40.0049713 Z M66.3932171,43.863658 C65.3225288,44.9275062 63.916625,45.4594303 62.5097205,45.4594303 C61.1028161,45.4594303 59.6969123,44.9275062 58.626224,43.863658 C56.4838468,41.7359616 56.4838468,38.2739809 58.626224,36.1462845 C60.7686012,34.0165997 64.2528411,34.0185882 66.3932171,36.1462845 C68.5355943,38.2739809 68.5355943,41.7359616 66.3932171,43.863658 L66.3932171,43.863658 Z M20.9800229,40.027839 C20.9800229,39.1011974 20.6167894,38.2302339 19.9573654,37.5750227 C19.2979415,36.9198115 18.421378,36.5588985 17.4887785,36.5588985 C16.5571796,36.5588985 15.6806161,36.9198115 15.0201916,37.5750227 C14.3607676,38.2302339 13.9985348,39.1011974 13.9985348,40.027839 C13.9985348,40.9534864 14.3607676,41.8244499 15.0201916,42.4806553 C16.34004,43.7900834 18.6385176,43.7900834 19.9573654,42.4806553 C20.6167894,41.8244499 20.9800229,40.9534864 20.9800229,40.027839 L20.9800229,40.027839 Z M21.372275,43.8865257 C20.3015867,44.9503739 18.8956829,45.482298 17.4887785,45.482298 C16.0828747,45.482298 14.6769709,44.9503739 13.605282,43.8865257 C11.464906,41.7588294 11.464906,38.2968487 13.605282,36.1691523 C15.7476592,34.0414559 19.2308984,34.0414559 21.372275,36.1691523 C23.5136516,38.2968487 23.5136516,41.7588294 21.372275,43.8865257 L21.372275,43.8865257 Z M54.8958259,54.856093 C50.901258,58.8261358 45.5888428,61.0114987 39.9392109,61.0114987 C34.2875777,61.0114987 28.9761632,58.8261358 24.9815953,54.856093 C22.241834,52.134829 20.7338646,48.8826352 19.9513616,46.6346345 L18.0601458,47.2848744 C18.9116932,49.730731 20.5577514,53.273246 23.5666857,56.2619634 C27.9394968,60.607833 33.7532342,63 39.9392109,63 C46.124187,63 51.9379244,60.607833 56.3107355,56.2619634 C58.8373597,53.7534691 60.8496533,50.563913 61.9793796,47.2818917 L60.0861625,46.6376173 C59.0534987,49.6382657 57.2103138,52.5573856 54.8958259,54.856093 L54.8958259,54.856093 Z M19.9503609,33.3663597 L18.0611465,32.7141313 C19.2719248,29.2501621 21.229183,26.0606061 23.5726896,23.7330653 C27.9434994,19.3911728 33.7552355,17 39.9392109,17 C46.1231863,17 51.9349225,19.3911728 56.3047316,23.7330653 C58.7713173,26.1838931 60.8396469,29.4569662 61.9773783,32.7141313 L60.0881638,33.3663597 C59.0444929,30.3836078 57.1502752,27.3849479 54.889822,25.1389357 C50.898256,21.1718757 45.5878422,18.9885013 39.9392109,18.9885013 C34.289579,18.9885013 28.9801658,21.1718757 24.9875992,25.1389357 C22.8542277,27.2596723 21.0650775,30.181775 19.9503609,33.3663597 L19.9503609,33.3663597 Z" id="AWS-Simple-Queue-Service_Icon_64_Squid" fill="#FFFFFF"></path>
    </g>
</svg>
<text x="1120" y="236" text-anchor="middle" font-family="Helvetica Neue, Helvetica, Arial, sans-serif" font-size="11.5" fill="#232F3E">SQS</text>
<text x="1120" y="250" text-anchor="middle" font-family="Helvetica Neue, Helvetica, Arial, sans-serif" font-size="11.5" fill="#232F3E">orders + DLQ</text>
<svg x="1220" y="160" width="60" height="60" viewBox="0 0 80 80">
    <title>Icon-Architecture/64/Arch_Amazon-EventBridge_64</title>
    <defs>
        <linearGradient x1="0%" y1="100%" x2="100%" y2="0%" id="linearGradient-1">
            <stop stop-color="#B0084D" offset="0%"></stop>
            <stop stop-color="#FF4F8B" offset="100%"></stop>
        </linearGradient>
    </defs>
    <g id="Icon-Architecture/64/Arch_Amazon-EventBridge_64" stroke="none" stroke-width="1" fill="none" fill-rule="evenodd">
        <g id="Icon-Architecture-BG/64/Application-Integration" fill="url(#linearGradient-1)">
            <rect id="Rectangle" x="0" y="0" width="80" height="80"></rect>
        </g>
        <path d="M53.656744,66 C51.5137882,66 49.7695913,64.247 49.7695913,62.091 C49.7695913,59.935 51.5137882,58.182 53.656744,58.182 C55.7996998,58.182 57.5438968,59.935 57.5438968,62.091 C57.5438968,64.247 55.7996998,66 53.656744,66 L53.656744,66 Z M45.1326526,49 L34.7977386,49 L29.6297845,40 L34.7977386,31 L45.1326526,31 L50.2996124,40 L45.1326526,49 Z M27.6210741,21.818 C25.4781184,21.818 23.7339214,20.065 23.7339214,17.909 C23.7339214,15.753 25.4781184,14 27.6210741,14 C29.7650244,14 31.5092213,15.753 31.5092213,17.909 C31.5092213,20.065 29.7650244,21.818 27.6210741,21.818 L27.6210741,21.818 Z M53.656744,56.182 C52.918891,56.182 52.214848,56.325 51.5635088,56.576 L47.3402451,49.41 L47.117497,49.543 L52.3093171,40.5 C52.4863222,40.19 52.4863222,39.81 52.3093171,39.5 L46.5675877,29.5 C46.3895881,29.19 46.0614325,29 45.7064278,29 L35.2581509,29 L35.2989218,28.976 L31.4266852,22.404 C32.691576,21.32 33.4980434,19.708 33.4980434,17.909 C33.4980434,14.651 30.8618597,12 27.6210741,12 C24.381283,12 21.7450993,14.651 21.7450993,17.909 C21.7450993,21.167 24.381283,23.818 27.6210741,23.818 C28.3599216,23.818 29.0639646,23.675 29.7153038,23.424 L33.3299879,29.557 L27.6200797,39.5 C27.4430746,39.81 27.4430746,40.19 27.6200797,40.5 L33.3628035,50.5 C33.5408031,50.81 33.8689587,51 34.2239635,51 L45.7064278,51 C45.7889639,51 45.8695112,50.987 45.9470752,50.968 L49.8521274,57.596 C48.5862421,58.68 47.7807692,60.292 47.7807692,62.091 C47.7807692,65.349 50.4159585,68 53.656744,68 C56.8975296,68 59.5327189,65.349 59.5327189,62.091 C59.5327189,58.833 56.8975296,56.182 53.656744,56.182 L53.656744,56.182 Z M59.5844283,32.104 C57.4414725,32.104 55.6982699,30.351 55.6982699,28.195 C55.6982699,26.039 57.4414725,24.286 59.5844283,24.286 C61.7273841,24.286 63.471581,26.039 63.471581,28.195 C63.471581,30.351 61.7273841,32.104 59.5844283,32.104 L59.5844283,32.104 Z M66.8665003,39.5 L63.091716,32.925 C64.5266511,31.846 65.4604031,30.13 65.4604031,28.195 C65.4604031,24.937 62.8252138,22.286 59.5844283,22.286 C58.7600615,22.286 57.9744768,22.459 57.2614841,22.77 L54.1837819,17.409 C54.0067767,17.1 53.6776267,16.909 53.3226219,16.909 L40.9949082,16.909 L40.9949082,18.909 L52.7488468,18.909 L55.5958456,23.869 C54.4383511,24.949 53.7094478,26.486 53.7094478,28.195 C53.7094478,31.453 56.3446371,34.104 59.5844283,34.104 C60.1880358,34.104 60.771755,34.011 61.3206699,33.84 L64.85779,40 L59.8917013,48.648 L61.6140212,49.648 L66.8665003,40.5 C67.0444999,40.19 67.0444999,39.81 66.8665003,39.5 L66.8665003,39.5 Z M21.229,55.247 C19.0850498,55.247 17.3408528,53.493 17.3408528,51.338 C17.3408528,49.182 19.0850498,47.429 21.229,47.429 C23.3719558,47.429 25.1161527,49.182 25.1161527,51.338 C25.1161527,53.493 23.3719558,55.247 21.229,55.247 L21.229,55.247 Z M24.4767464,56.258 C26.0588544,55.198 27.1049748,53.389 27.1049748,51.338 C27.1049748,48.08 24.4687911,45.429 21.229,45.429 C20.2902759,45.429 19.4062445,45.657 18.618671,46.052 L15.1432044,40 L20.9018387,29.971 L19.1785244,28.971 L13.1334997,39.5 C12.9555001,39.81 12.9555001,40.19 13.1334997,40.5 L17.0047419,47.24 C15.9834817,48.304 15.3520307,49.747 15.3520307,51.338 C15.3520307,54.596 17.9882144,57.247 21.229,57.247 C21.7172558,57.247 22.189601,57.18 22.6440469,57.066 L25.8162181,62.591 C25.9942177,62.9 26.3223733,63.091 26.6773781,63.091 L39.0060862,63.091 L39.0060862,61.091 L27.2511532,61.091 L24.4767464,56.258 Z" id="Amazon-EventBridge_Icon_64_Squid" fill="#FFFFFF"></path>
    </g>
</svg>
<text x="1250" y="236" text-anchor="middle" font-family="Helvetica Neue, Helvetica, Arial, sans-serif" font-size="11.5" fill="#232F3E">EventBridge</text>
<text x="1250" y="250" text-anchor="middle" font-family="Helvetica Neue, Helvetica, Arial, sans-serif" font-size="11.5" fill="#232F3E">Pipe</text>
<svg x="1360" y="160" width="60" height="60" viewBox="0 0 80 80">
    <!-- Generator: Sketch 64 (93537) - https://sketch.com -->
    <title>Icon-Architecture/64/Arch_AWS-Step-Functions_64</title>
    <desc>Created with Sketch.</desc>
    <defs>
        <linearGradient x1="0%" y1="100%" x2="100%" y2="0%" id="linearGradient-1">
            <stop stop-color="#B0084D" offset="0%"></stop>
            <stop stop-color="#FF4F8B" offset="100%"></stop>
        </linearGradient>
    </defs>
    <g id="Icon-Architecture/64/Arch_AWS-Step-Functions_64" stroke="none" stroke-width="1" fill="none" fill-rule="evenodd">
        <g id="Icon-Architecture-BG/64/Application-Integration" fill="url(#linearGradient-1)">
            <rect id="Rectangle" x="0" y="0" width="80" height="80"></rect>
        </g>
        <path d="M45,44 L66,44 L66,37 L45,37 L45,44 Z M67,35 L44,35 C43.447,35 43,35.448 43,36 L43,45 C43,45.552 43.447,46 44,46 L67,46 C67.553,46 68,45.552 68,45 L68,36 C68,35.448 67.553,35 67,35 L67,35 Z M43.5,62.5 C43.5,64.43 41.93,66 40,66 C38.07,66 36.5,64.43 36.5,62.5 C36.5,60.57 38.07,59 40,59 C41.93,59 43.5,60.57 43.5,62.5 L43.5,62.5 Z M14,47 L32,47 L32,43 L14,43 L14,47 Z M14,37 L32,37 L32,33 L14,33 L14,37 Z M36.5,17.5 C36.5,15.57 38.07,14 40,14 C41.93,14 43.5,15.57 43.5,17.5 C43.5,19.43 41.93,21 40,21 C38.07,21 36.5,19.43 36.5,17.5 L36.5,17.5 Z M56,53 L24,53 L24,49 L33,49 C33.553,49 34,48.552 34,48 L34,42 C34,41.448 33.553,41 33,41 L24,41 L24,39 L33,39 C33.553,39 34,38.552 34,38 L34,32 C34,31.448 33.553,31 33,31 L24,31 L24,28 L56,28 L56,32 L58,32 L58,27 C58,26.448 57.553,26 57,26 L41,26 L41,22.904 C43.556,22.432 45.5,20.191 45.5,17.5 C45.5,14.467 43.032,12 40,12 C36.968,12 34.5,14.467 34.5,17.5 C34.5,20.191 36.444,22.432 39,22.904 L39,26 L23,26 C22.447,26 22,26.448 22,27 L22,31 L13,31 C12.447,31 12,31.448 12,32 L12,38 C12,38.552 12.447,39 13,39 L22,39 L22,41 L13,41 C12.447,41 12,41.448 12,42 L12,48 C12,48.552 12.447,49 13,49 L22,49 L22,54 C22,54.552 22.447,55 23,55 L39,55 L39,57.096 C36.444,57.568 34.5,59.809 34.5,62.5 C34.5,65.533 36.968,68 40,68 C43.032,68 45.5,65.533 45.5,62.5 C45.5,59.809 43.556,57.568 41,57.096 L41,55 L57,55 C57.553,55 58,54.552 58,54 L58,49.027 L56,49.027 L56,53 Z" id="AWS_Step_Functions_Icon_64_Squid" fill="#FFFFFF"></path>
    </g>
</svg>
<text x="1390" y="236" text-anchor="middle" font-family="Helvetica Neue, Helvetica, Arial, sans-serif" font-size="11.5" fill="#232F3E">Step Functions</text>
<text x="1390" y="250" text-anchor="middle" font-family="Helvetica Neue, Helvetica, Arial, sans-serif" font-size="11.5" fill="#232F3E">waitForTaskToken</text>
<svg x="1364" y="300" width="52" height="52" viewBox="0 0 80 80">
    <!-- Generator: Sketch 64 (93537) - https://sketch.com -->
    <title>Icon-Architecture/64/Arch_AWS-Lambda_64</title>
    <desc>Created with Sketch.</desc>
    <defs>
        <linearGradient x1="0%" y1="100%" x2="100%" y2="0%" id="linearGradient-1">
            <stop stop-color="#C8511B" offset="0%"></stop>
            <stop stop-color="#FF9900" offset="100%"></stop>
        </linearGradient>
    </defs>
    <g id="Icon-Architecture/64/Arch_AWS-Lambda_64" stroke="none" stroke-width="1" fill="none" fill-rule="evenodd">
        <g id="Icon-Architecture-BG/64/Compute" fill="url(#linearGradient-1)">
            <rect id="Rectangle" x="0" y="0" width="80" height="80"></rect>
        </g>
        <path d="M28.0075352,66 L15.5907274,66 L29.3235885,37.296 L35.5460249,50.106 L28.0075352,66 Z M30.2196674,34.553 C30.0512768,34.208 29.7004629,33.989 29.3175745,33.989 L29.3145676,33.989 C28.9286723,33.99 28.5778583,34.211 28.4124746,34.558 L13.097944,66.569 C12.9495999,66.879 12.9706487,67.243 13.1550766,67.534 C13.3374998,67.824 13.6582439,68 14.0020416,68 L28.6420072,68 C29.0299071,68 29.3817234,67.777 29.5481094,67.428 L37.563706,50.528 C37.693006,50.254 37.6920037,49.937 37.5586944,49.665 L30.2196674,34.553 Z M64.9953491,66 L52.6587274,66 L32.866809,24.57 C32.7014253,24.222 32.3486067,24 31.9617091,24 L23.8899822,24 L23.8990031,14 L39.7197081,14 L59.4204149,55.429 C59.5857986,55.777 59.9386172,56 60.3255148,56 L64.9953491,56 L64.9953491,66 Z M65.9976745,54 L60.9599868,54 L41.25928,12.571 C41.0938963,12.223 40.7410777,12 40.3531778,12 L22.89768,12 C22.3453987,12 21.8963569,12.447 21.8953545,12.999 L21.884329,24.999 C21.884329,25.265 21.9885708,25.519 22.1780103,25.707 C22.3654452,25.895 22.6200358,26 22.8866544,26 L31.3292417,26 L51.1221625,67.43 C51.2885485,67.778 51.6393624,68 52.02626,68 L65.9976745,68 C66.5519605,68 67,67.552 67,67 L67,55 C67,54.448 66.5519605,54 65.9976745,54 L65.9976745,54 Z" id="AWS-Lambda_Icon_64_Squid" fill="#FFFFFF"></path>
    </g>
</svg>
<text x="1390" y="368" text-anchor="middle" font-family="Helvetica Neue, Helvetica, Arial, sans-serif" font-size="11.5" fill="#232F3E">Pipeline worker</text>
<text x="1390" y="382" text-anchor="middle" font-family="Helvetica Neue, Helvetica, Arial, sans-serif" font-size="11.5" fill="#232F3E">validate · dispatch</text>
<text x="1390" y="396" text-anchor="middle" font-family="Helvetica Neue, Helvetica, Arial, sans-serif" font-size="11.5" fill="#232F3E">finalize · review</text>
<path d="M1153 190 L1217 190" fill="none" stroke="#6B7280" stroke-width="1.6"  marker-end="url(#arr)" />
<path d="M1283 190 L1357 190" fill="none" stroke="#6B7280" stroke-width="1.6"  marker-end="url(#arr)" />
<circle cx="1320" cy="176" r="12.5" fill="#111827"/>
<text x="1320" y="180.5" text-anchor="middle" font-family="Helvetica Neue, Helvetica, Arial, sans-serif" font-size="13" font-weight="700" fill="#fff">8</text>
<path d="M1390 234 L1390 296" fill="none" stroke="#6B7280" stroke-width="1.6"  marker-end="url(#arr)" />
<svg x="700" y="480" width="60" height="60" viewBox="0 0 80 80">
    <!-- Generator: Sketch 64 (93537) - https://sketch.com -->
    <title>Icon-Architecture/64/Arch_Amazon-DynamoDB_64</title>
    <desc>Created with Sketch.</desc>
    <defs>
        <linearGradient x1="0%" y1="100%" x2="100%" y2="0%" id="linearGradient-1">
            <stop stop-color="#2E27AD" offset="0%"></stop>
            <stop stop-color="#527FFF" offset="100%"></stop>
        </linearGradient>
    </defs>
    <g id="Icon-Architecture/64/Arch_Amazon-DynamoDB_64" stroke="none" stroke-width="1" fill="none" fill-rule="evenodd">
        <g id="Icon-Architecture-BG/64/Database" fill="url(#linearGradient-1)">
            <rect id="Rectangle" x="0" y="0" width="80" height="80"></rect>
        </g>
        <path d="M52.0859525,54.8502506 C48.7479569,57.5490338 41.7449661,58.9752927 35.0439749,58.9752927 C28.3419838,58.9752927 21.336993,57.548042 17.9999974,54.8492588 L17.9999974,60.284515 L18.0009974,60.284515 C18.0009974,62.9952002 24.9999974,66.0163299 35.0439749,66.0163299 C45.0799617,66.0163299 52.0749525,62.9991676 52.0859525,60.290466 L52.0859525,54.8502506 Z M52.0869525,44.522272 L54.0869499,44.5113618 L54.0869499,44.522272 C54.0869499,45.7303271 53.4819507,46.8580436 52.3039522,47.8905439 C53.7319503,49.147199 54.0869499,50.3800499 54.0869499,51.257824 C54.0869499,51.263775 54.0859499,51.2687342 54.0859499,51.2746852 L54.0859499,60.284515 L54.0869499,60.284515 C54.0869499,65.2952658 44.2749628,68 35.0439749,68 C25.8349871,68 16.0499999,65.3071678 16.003,60.3192292 C16.003,60.31427 16,60.3093109 16,60.3043517 L16,51.2548485 C16,51.2528648 16.002,51.2498893 16.002,51.2469138 C16.005,50.3691398 16.3609995,49.1412479 17.7869976,47.8875684 C16.3699995,46.6358725 16.01,45.4149236 16.001,44.5440924 L16.002,44.5440924 C16.002,44.540125 16,44.5371495 16,44.5331822 L16,35.483679 C16,35.4807035 16.002,35.477728 16.002,35.4747525 C16.005,34.5969784 16.3619995,33.3690866 17.7879976,32.1173908 C16.3699995,30.8647031 16.01,29.6427623 16.001,28.7729229 L16.002,28.7729229 C16.002,28.7689556 16,28.7649882 16,28.7610209 L16,19.7125095 C16,19.709534 16.002,19.7065585 16.002,19.703583 C16.019,14.6997751 25.8199871,12 35.0439749,12 C40.2549681,12 45.2609615,12.8281823 48.7779569,14.2722941 L48.0129579,16.1052054 C44.7299622,14.7573015 40.0029684,13.9836701 35.0439749,13.9836701 C24.9999882,13.9836701 18.0009974,17.0047998 18.0009974,19.7174687 C18.0009974,22.4291458 24.9999882,25.4502754 35.0439749,25.4502754 C35.3149746,25.4532509 35.5799742,25.4502754 35.8479739,25.4403571 L35.9319738,27.4220435 C35.6359742,27.4339456 35.3399745,27.4339456 35.0439749,27.4339456 C28.3419838,27.4339456 21.336993,26.0066949 18,23.3079117 L18,28.7401923 L18.0009974,28.7401923 L18.0009974,28.7630046 C18.0109974,29.8034395 19.0779959,30.7119605 19.9719948,31.2892085 C22.6619912,33.0040913 27.4819849,34.1754485 32.8569778,34.4184481 L32.7659779,36.4001346 C27.3209851,36.1531677 22.5529914,35.0234675 19.4839954,33.2917235 C18.7279964,33.8570695 18.0009974,34.6217743 18.0009974,35.4886382 C18.0009974,38.2003153 24.9999882,41.2214449 35.0439749,41.2214449 C36.0289736,41.2214449 37.0069723,41.1887143 37.9519711,41.1232532 L38.0909709,43.1019642 C37.1009722,43.1704008 36.0749736,43.205115 35.0439749,43.205115 C28.3419838,43.205115 21.336993,41.7778644 18,39.0790811 L18,44.5113618 L18.0009974,44.5113618 C18.0109974,45.574609 19.0779959,46.4821381 19.9719948,47.060378 C23.0479907,49.0232196 28.8239831,50.2451604 35.0439749,50.2451604 L35.4839744,50.2451604 L35.4839744,52.2288305 L35.0439749,52.2288305 C28.7249832,52.2288305 22.9819908,51.0554896 19.4699954,49.0728113 C18.7179964,49.6371655 18.0009974,50.397903 18.0009974,51.257824 C18.0009974,53.9695011 24.9999882,56.9916225 35.0439749,56.9916225 C45.0799617,56.9916225 52.0749525,53.9744602 52.0859525,51.2647668 L52.0859525,51.2548485 L52.0859525,51.2538566 C52.0839525,50.391952 51.3639534,49.6312145 50.6099544,49.0668603 C50.1219551,49.3435823 49.5989558,49.6103859 49.0039566,49.8553692 L48.2379576,48.022458 C48.9639566,47.7239156 49.5939558,47.4015692 50.1109551,47.0623616 C51.0129539,46.4742034 52.0869525,45.5547723 52.0869525,44.522272 L52.0869525,44.522272 Z M60.6529412,30.0166841 L55.0489486,30.0166841 C54.717949,30.0166841 54.4069494,29.8540231 54.2219497,29.5822603 C54.0349499,29.3104975 53.99695,28.9643471 54.1189498,28.6598537 L57.5279453,20.1380068 L44.6189702,20.1380068 L38.6189702,32.0400276 L45.0009618,32.0400276 C45.3199614,32.0400276 45.619961,32.1917784 45.8089608,32.44668 C45.9959605,32.7025735 46.0509604,33.0308709 45.9539606,33.3333806 L40.2579681,51.089212 L60.6529412,30.0166841 Z M63.7219372,29.7121907 L38.7229701,55.539576 C38.5279703,55.7399267 38.2659707,55.8440694 38.000971,55.8440694 C37.8249713,55.8440694 37.6479715,55.7994368 37.4899717,55.7052124 C37.0899722,55.4691557 36.9069725,54.992083 37.0479723,54.5517083 L43.6339636,34.0236978 L37.0009724,34.0236978 C36.6539728,34.0236978 36.3329732,33.8461593 36.1499735,33.5535679 C35.9679737,33.2609766 35.9509737,32.8959813 36.1069735,32.5885124 L43.1069643,18.7028214 C43.2759641,18.3665893 43.6219636,18.1543366 44.0009631,18.1543366 L59.0009434,18.1543366 C59.331943,18.1543366 59.6429425,18.3179894 59.8279423,18.5887604 C60.0149421,18.861515 60.052942,19.2066736 59.9309422,19.5121588 L56.5219467,28.0330139 L62.9999381,28.0330139 C63.3999376,28.0330139 63.7629371,28.2710544 63.9199369,28.6360497 C64.0769367,29.0020368 63.9989368,29.4255504 63.7219372,29.7121907 L63.7219372,29.7121907 Z M19.4549955,60.6743062 C20.8719936,61.4727334 22.6559912,62.1442057 24.7569885,62.6678947 L25.2449878,60.7437346 C23.3459903,60.2706293 21.6859925,59.6497405 20.4429942,58.949505 L19.4549955,60.6743062 Z M24.7569885,46.7985335 L25.2449878,44.8753653 C23.3459903,44.4012681 21.6859925,43.7803794 20.4429942,43.0801438 L19.4549955,44.804945 C20.8719936,45.6033722 22.6549912,46.2748446 24.7569885,46.7985335 L24.7569885,46.7985335 Z M19.4549955,28.9355839 L20.4429942,27.2107827 C21.6839925,27.9110182 23.3449903,28.5309151 25.2449878,29.0060041 L24.7569885,30.9291723 C22.6529912,30.4044916 20.8699936,29.7330193 19.4549955,28.9355839 L19.4549955,28.9355839 Z" id="Amazon-DynamoDB_Icon_64_Squid" fill="#FFFFFF"></path>
    </g>
</svg>
<text x="730" y="556" text-anchor="middle" font-family="Helvetica Neue, Helvetica, Arial, sans-serif" font-size="11.5" fill="#232F3E">DynamoDB</text>
<text x="730" y="570" text-anchor="middle" font-family="Helvetica Neue, Helvetica, Arial, sans-serif" font-size="11.5" fill="#232F3E">single table</text>
<svg x="860" y="480" width="60" height="60" viewBox="0 0 80 80">
    <title>Icon-Architecture/64/Arch_Amazon-Simple-Storage-Service_64</title>
    <defs>
        <linearGradient x1="0%" y1="100%" x2="100%" y2="0%" id="linearGradient-1">
            <stop stop-color="#1B660F" offset="0%"></stop>
            <stop stop-color="#6CAE3E" offset="100%"></stop>
        </linearGradient>
    </defs>
    <g id="Icon-Architecture/64/Arch_Amazon-Simple-Storage-Service_64" stroke="none" stroke-width="1" fill="none" fill-rule="evenodd">
        <g id="Rectangle" fill="url(#linearGradient-1)">
            <rect x="0" y="0" width="80" height="80"></rect>
        </g>
        <g id="Icon-Service/64/Amazon-Simple-Storage-Service_64" transform="translate(8.000000, 8.000000)" fill="#FFFFFF">
            <path d="M52.8359,34.8926 L53.2199,32.1886 C56.7609,34.3096 56.8069,35.1856 56.8059132,35.2096 C56.7999,35.2146 56.1959,35.7186 52.8359,34.8926 L52.8359,34.8926 Z M50.8929,34.3526 C44.7729,32.5006 36.2499,28.5906 32.8009,26.9606 C32.8009,26.9466 32.8049,26.9336 32.8049,26.9196 C32.8049,25.5946 31.7269,24.5166 30.4009,24.5166 C29.0769,24.5166 27.9989,25.5946 27.9989,26.9196 C27.9989,28.2446 29.0769,29.3226 30.4009,29.3226 C30.9829,29.3226 31.5109,29.1056 31.9279,28.7606 C35.9859,30.6816 44.4429,34.5346 50.6079,36.3546 L48.1699,53.5606 C48.1629,53.6076 48.1599,53.6546 48.1599,53.7016 C48.1599,55.2166 41.4529,57.9996 30.4939,57.9996 C19.4189,57.9996 12.6409,55.2166 12.6409,53.7016 C12.6409,53.6556 12.6379,53.6106 12.6319,53.5656 L7.5379,16.3586 C11.9469,19.3936 21.4299,20.9996 30.4999,20.9996 C39.5559,20.9996 49.0229,19.3996 53.4409,16.3736 L50.8929,34.3526 Z M6.9999,12.4776 C7.0719,11.1616 14.6339,5.9996 30.4999,5.9996 C46.3639,5.9996 53.9269,11.1606 53.9999,12.4776 L53.9999,12.9266 C53.1299,15.8776 43.3299,18.9996 30.4999,18.9996 C17.6479,18.9996 7.8429,15.8676 6.9999,12.9126 L6.9999,12.4776 Z M55.9999,12.4996 C55.9999,9.0346 46.0659,3.9996 30.4999,3.9996 C14.9339,3.9996 4.9999,9.0346 4.9999,12.4996 L5.0939,13.2536 L10.6419,53.7776 C10.7749,58.3096 22.8609,59.9996 30.4939,59.9996 C39.9659,59.9996 50.0289,57.8216 50.1589,53.7806 L52.5549,36.8836 C53.8879,37.2026 54.9849,37.3656 55.8659,37.3656 C57.0489,37.3656 57.8489,37.0766 58.3339,36.4986 C58.7319,36.0246 58.8839,35.4506 58.7699,34.8396 C58.5109,33.4556 56.8679,31.9636 53.5219,30.0546 L55.8979,13.2926 L55.9999,12.4996 Z" id="Amazon-Simple-Storage-Service-Icon_64_Squid"></path>
        </g>
    </g>
</svg>
<text x="890" y="556" text-anchor="middle" font-family="Helvetica Neue, Helvetica, Arial, sans-serif" font-size="11.5" fill="#232F3E">S3 ×3</text>
<text x="890" y="570" text-anchor="middle" font-family="Helvetica Neue, Helvetica, Arial, sans-serif" font-size="11.5" fill="#232F3E">published · artifacts</text>
<text x="890" y="584" text-anchor="middle" font-family="Helvetica Neue, Helvetica, Arial, sans-serif" font-size="11.5" fill="#232F3E">assets</text>
<svg x="787" y="600" width="46" height="46" viewBox="0 0 80 80">
    <!-- Generator: Sketch 64 (93537) - https://sketch.com -->
    <title>Icon-Architecture/64/Arch_AWS-Key-Management-Services_64</title>
    <desc>Created with Sketch.</desc>
    <defs>
        <linearGradient x1="0%" y1="100%" x2="100%" y2="0%" id="linearGradient-1">
            <stop stop-color="#BD0816" offset="0%"></stop>
            <stop stop-color="#FF5252" offset="100%"></stop>
        </linearGradient>
    </defs>
    <g id="Icon-Architecture/64/Arch_AWS-Key-Management-Services_64" stroke="none" stroke-width="1" fill="none" fill-rule="evenodd">
        <g id="Icon-Architecture-BG/64/Security-Identity-Compliance" fill="url(#linearGradient-1)">
            <rect id="Rectangle" x="0" y="0" width="80" height="80"></rect>
        </g>
        <path d="M51.9968943,52.4963312 L58.9968943,52.4963312 L58.9968943,50.4963312 L51.9968943,50.4963312 L51.9968943,52.4963312 Z M42.9968943,52.4963312 L49.9968943,52.4963312 L49.9968943,50.4963312 L42.9968943,50.4963312 L42.9968943,52.4963312 Z M33.9968943,52.4963312 L40.9968943,52.4963312 L40.9968943,50.4963312 L33.9968943,50.4963312 L33.9968943,52.4963312 Z M44.9968943,44.4963312 C44.9968943,43.3933312 45.8948943,42.4963312 46.9968943,42.4963312 C48.0998943,42.4963312 48.9968943,43.3933312 48.9968943,44.4963312 C48.9968943,45.5993312 48.0998943,46.4963312 46.9968943,46.4963312 C45.8948943,46.4963312 44.9968943,45.5993312 44.9968943,44.4963312 L44.9968943,44.4963312 Z M50.9968943,44.4963312 C50.9968943,42.2903312 49.2038943,40.4963312 46.9968943,40.4963312 C44.7908943,40.4963312 42.9968943,42.2903312 42.9968943,44.4963312 C42.9968943,46.7023312 44.7908943,48.4963312 46.9968943,48.4963312 C49.2038943,48.4963312 50.9968943,46.7023312 50.9968943,44.4963312 L50.9968943,44.4963312 Z M36.9968943,42.4963312 C38.0998943,42.4963312 38.9968943,43.3933312 38.9968943,44.4963312 C38.9968943,45.5993312 38.0998943,46.4963312 36.9968943,46.4963312 C35.8948943,46.4963312 34.9968943,45.5993312 34.9968943,44.4963312 C34.9968943,43.3933312 35.8948943,42.4963312 36.9968943,42.4963312 L36.9968943,42.4963312 Z M36.9968943,48.4963312 C39.2038943,48.4963312 40.9968943,46.7023312 40.9968943,44.4963312 C40.9968943,42.2903312 39.2038943,40.4963312 36.9968943,40.4963312 C34.7908943,40.4963312 32.9968943,42.2903312 32.9968943,44.4963312 C32.9968943,46.7023312 34.7908943,48.4963312 36.9968943,48.4963312 L36.9968943,48.4963312 Z M65.9968943,33.4963312 L65.9968943,56.4963312 C65.9968943,57.0483312 65.5498943,57.4963312 64.9968943,57.4963312 L33.9968943,57.4963312 L33.9968943,55.4963312 L63.9968943,55.4963312 L63.9968943,34.4963312 L41.9968943,34.4963312 L41.9968943,32.4963312 L64.9968943,32.4963312 C65.5498943,32.4963312 65.9968943,32.9443312 65.9968943,33.4963312 L65.9968943,33.4963312 Z M30.6958943,38.5433312 C30.2798943,38.6743312 29.9968943,39.0603312 29.9968943,39.4963312 L29.9968943,60.5363312 L27.5978943,62.5933312 L24.9968943,59.6203312 L24.9968943,56.9963312 C24.9968943,56.7313312 24.8918943,56.4763312 24.7038943,56.2893312 L22.4118943,53.9963312 L24.7038943,51.7033312 C24.8918943,51.5163312 24.9968943,51.2613312 24.9968943,50.9963312 L24.9968943,48.9963312 C24.9968943,48.7313312 24.8918943,48.4763312 24.7038943,48.2893312 L22.4118943,45.9963312 L24.7038943,43.7033312 C24.8918943,43.5163312 24.9968943,43.2613312 24.9968943,42.9963312 L24.9968943,39.5063312 C24.9968943,39.0703312 24.7148943,38.6843312 24.2988943,38.5533312 C19.1568943,36.9233312 16.1168943,31.6343312 17.2298943,26.2493312 C18.0318943,22.3693312 21.0158943,19.2583312 24.8308943,18.3233312 C28.0798943,17.5263312 31.4118943,18.2233312 33.9718943,20.2303312 C36.5298943,22.2373312 37.9968943,25.2503312 37.9968943,28.4963312 C37.9968943,33.0493312 34.9948943,37.1813312 30.6958943,38.5433312 L30.6958943,38.5433312 Z M39.9968943,28.4963312 C39.9968943,24.6323312 38.2508943,21.0453312 35.2058943,18.6563312 C32.1608943,16.2673312 28.2088943,15.4363312 24.3548943,16.3813312 C19.7938943,17.4983312 16.2288943,21.2133312 15.2708943,25.8443312 L15.2708943,25.8453312 C14.0008943,31.9903312 17.2998943,38.0343312 22.9968943,40.2153312 L22.9968943,42.5823312 L20.2898943,45.2893312 C19.8998943,45.6803312 19.8998943,46.3123312 20.2898943,46.7033312 L22.9968943,49.4103312 L22.9968943,50.5823312 L20.2898943,53.2893312 C19.8998943,53.6803312 19.8998943,54.3123312 20.2898943,54.7033312 L22.9968943,57.4103312 L22.9968943,59.9963312 C22.9968943,60.2383312 23.0848943,60.4723312 23.2448943,60.6553312 L26.7448943,64.6553312 C26.9428943,64.8803312 27.2188943,64.9963312 27.4968943,64.9963312 C27.7278943,64.9963312 27.9588943,64.9173312 28.1478943,64.7553312 L31.6478943,61.7553312 C31.8698943,61.5653312 31.9968943,61.2883312 31.9968943,60.9963312 L31.9968943,40.2043312 C36.7428943,38.3723312 39.9968943,33.6623312 39.9968943,28.4963312 L39.9968943,28.4963312 Z M27.4968943,30.8663312 C26.1188943,30.8663312 24.9968943,29.7453312 24.9968943,28.3663312 C24.9968943,26.9883312 26.1188943,25.8663312 27.4968943,25.8663312 C28.8758943,25.8663312 29.9968943,26.9883312 29.9968943,28.3663312 C29.9968943,29.7453312 28.8758943,30.8663312 27.4968943,30.8663312 L27.4968943,30.8663312 Z M27.4968943,23.8663312 C25.0158943,23.8663312 22.9968943,25.8853312 22.9968943,28.3663312 C22.9968943,30.8483312 25.0158943,32.8663312 27.4968943,32.8663312 C29.9788943,32.8663312 31.9968943,30.8483312 31.9968943,28.3663312 C31.9968943,25.8853312 29.9788943,23.8663312 27.4968943,23.8663312 L27.4968943,23.8663312 Z" id="AWS-Key-Management-Services_Icon_64_Squid" fill="#FFFFFF"></path>
    </g>
</svg>
<text x="810" y="662" text-anchor="middle" font-family="Helvetica Neue, Helvetica, Arial, sans-serif" font-size="11.5" fill="#232F3E">KMS</text>
<text x="810" y="676" text-anchor="middle" font-family="Helvetica Neue, Helvetica, Arial, sans-serif" font-size="11.5" fill="#232F3E">at-rest keys</text>
<svg x="350" y="480" width="60" height="60" viewBox="0 0 80 80">
    <!-- Generator: Sketch 64 (93537) - https://sketch.com -->
    <title>Icon-Architecture/64/Arch_Amazon-CloudFront_64</title>
    <desc>Created with Sketch.</desc>
    <defs>
        <linearGradient x1="0%" y1="100%" x2="100%" y2="0%" id="linearGradient-1">
            <stop stop-color="#4D27A8" offset="0%"></stop>
            <stop stop-color="#A166FF" offset="100%"></stop>
        </linearGradient>
    </defs>
    <g id="Icon-Architecture/64/Arch_Amazon-CloudFront_64" stroke="none" stroke-width="1" fill="none" fill-rule="evenodd">
        <g id="Icon-Architecture-BG/64/Networking-Content-Delivery" fill="url(#linearGradient-1)">
            <rect id="Rectangle" x="0" y="0" width="80" height="80"></rect>
        </g>
        <path d="M55.122,52.123 C55.122,50.469 53.776,49.123 52.122,49.123 C50.468,49.123 49.122,50.469 49.122,52.123 C49.122,53.777 50.468,55.123 52.122,55.123 C53.776,55.123 55.122,53.777 55.122,52.123 L55.122,52.123 Z M57.122,52.123 C57.122,54.88 54.879,57.123 52.122,57.123 C49.365,57.123 47.122,54.88 47.122,52.123 C47.122,49.366 49.365,47.123 52.122,47.123 C54.879,47.123 57.122,49.366 57.122,52.123 L57.122,52.123 Z M30.392,37.692 C30.392,36.038 29.046,34.692 27.392,34.692 C25.737,34.692 24.392,36.038 24.392,37.692 C24.392,39.346 25.737,40.692 27.392,40.692 C29.046,40.692 30.392,39.346 30.392,37.692 L30.392,37.692 Z M32.392,37.692 C32.392,40.449 30.148,42.692 27.392,42.692 C24.635,42.692 22.392,40.449 22.392,37.692 C22.392,34.935 24.635,32.692 27.392,32.692 C30.148,32.692 32.392,34.935 32.392,37.692 L32.392,37.692 Z M39.73,22.007 C39.73,23.661 41.076,25.007 42.73,25.007 C44.385,25.007 45.73,23.661 45.73,22.007 C45.73,20.352 44.385,19.007 42.73,19.007 C41.076,19.007 39.73,20.352 39.73,22.007 L39.73,22.007 Z M37.73,22.007 C37.73,19.25 39.974,17.007 42.73,17.007 C45.487,17.007 47.73,19.25 47.73,22.007 C47.73,24.764 45.487,27.007 42.73,27.007 C39.974,27.007 37.73,24.764 37.73,22.007 L37.73,22.007 Z M66,40 C66,30.727 61.028,22.148 53.012,17.509 C51.575,17.799 50.185,18.196 48.451,18.823 L47.771,16.942 C48.676,16.616 49.486,16.352 50.266,16.126 C47.046,14.737 43.548,14 40,14 C38.311,14 36.649,14.175 35.025,14.492 C36.201,15.18 37.244,15.866 38.257,16.634 L37.048,18.227 C35.62,17.145 34.14,16.228 32.197,15.21 C22.378,18.298 15.306,26.958 14.183,37.128 C16.242,36.711 18.219,36.484 20.414,36.43 L20.463,38.429 C18.163,38.486 16.187,38.73 14.027,39.205 C14.018,39.47 14,39.738 14,40 C14,48.658 18.283,56.636 25.327,61.447 C24.074,57.716 23.45,54.19 23.45,50.746 C23.45,48.782 23.788,47.169 24.145,45.462 C24.228,45.067 24.312,44.665 24.394,44.248 L26.357,44.635 C26.273,45.059 26.187,45.47 26.103,45.873 C25.753,47.545 25.45,48.989 25.45,50.746 C25.45,54.654 26.308,58.695 28.054,63.083 C31.773,65.014 35.789,66 40,66 C42.756,66 45.446,65.56 48.012,64.714 C49.019,62.727 49.766,60.852 50.39,58.699 L52.311,59.256 C51.855,60.826 51.332,62.253 50.709,63.677 C52.323,62.951 53.85,62.053 55.283,61.005 C54.938,60.159 54.568,59.318 54.159,58.499 L55.948,57.604 C56.296,58.3 56.615,59.012 56.92,59.728 C62.705,54.775 66,47.66 66,40 L66,40 Z M68,40 C68,48.727 64.034,56.799 57.121,62.149 C55.409,63.479 53.552,64.583 51.589,65.472 C50.756,65.85 49.908,66.2 49.036,66.494 C46.156,67.493 43.113,68 40,68 C35.4,68 30.832,66.854 26.788,64.686 C17.667,59.806 12,50.347 12,40 C12,39.314 12.018,38.792 12.059,38.309 C12.74,26.625 20.756,16.512 32.001,13.166 C34.562,12.393 37.255,12 40,12 C44.808,12 49.539,13.238 53.684,15.579 C62.513,20.525 68,29.884 68,40 L68,40 Z M37.314,25.463 L36,23.956 C33.758,25.912 32.014,27.989 29.977,31.126 L31.655,32.215 C33.583,29.244 35.223,27.288 37.314,25.463 L37.314,25.463 Z M34.275,38.427 L33.625,40.318 C38.218,41.895 42.225,44.411 46.234,48.236 L47.615,46.789 C43.389,42.758 39.15,40.101 34.275,38.427 L34.275,38.427 Z M47.646,26.668 C51.398,32.39 53.511,38.671 53.925,45.338 L51.929,45.462 C51.536,39.146 49.533,33.192 45.975,27.765 L47.646,26.668 Z" id="Amazon-CloudFront_Icon_64_Squid" fill="#FFFFFF"></path>
    </g>
</svg>
<text x="380" y="556" text-anchor="middle" font-family="Helvetica Neue, Helvetica, Arial, sans-serif" font-size="11.5" fill="#232F3E">CloudFront sites</text>
<text x="380" y="570" text-anchor="middle" font-family="Helvetica Neue, Helvetica, Arial, sans-serif" font-size="11.5" fill="#232F3E">edge slug router</text>
<text x="380" y="584" text-anchor="middle" font-family="Helvetica Neue, Helvetica, Arial, sans-serif" font-size="11.5" fill="#232F3E">+ KeyValueStore</text>
<svg x="500" y="480" width="60" height="60" viewBox="0 0 80 80">
    <title>Icon-Architecture/64/Arch_Amazon-Simple-Storage-Service_64</title>
    <defs>
        <linearGradient x1="0%" y1="100%" x2="100%" y2="0%" id="linearGradient-1">
            <stop stop-color="#1B660F" offset="0%"></stop>
            <stop stop-color="#6CAE3E" offset="100%"></stop>
        </linearGradient>
    </defs>
    <g id="Icon-Architecture/64/Arch_Amazon-Simple-Storage-Service_64" stroke="none" stroke-width="1" fill="none" fill-rule="evenodd">
        <g id="Rectangle" fill="url(#linearGradient-1)">
            <rect x="0" y="0" width="80" height="80"></rect>
        </g>
        <g id="Icon-Service/64/Amazon-Simple-Storage-Service_64" transform="translate(8.000000, 8.000000)" fill="#FFFFFF">
            <path d="M52.8359,34.8926 L53.2199,32.1886 C56.7609,34.3096 56.8069,35.1856 56.8059132,35.2096 C56.7999,35.2146 56.1959,35.7186 52.8359,34.8926 L52.8359,34.8926 Z M50.8929,34.3526 C44.7729,32.5006 36.2499,28.5906 32.8009,26.9606 C32.8009,26.9466 32.8049,26.9336 32.8049,26.9196 C32.8049,25.5946 31.7269,24.5166 30.4009,24.5166 C29.0769,24.5166 27.9989,25.5946 27.9989,26.9196 C27.9989,28.2446 29.0769,29.3226 30.4009,29.3226 C30.9829,29.3226 31.5109,29.1056 31.9279,28.7606 C35.9859,30.6816 44.4429,34.5346 50.6079,36.3546 L48.1699,53.5606 C48.1629,53.6076 48.1599,53.6546 48.1599,53.7016 C48.1599,55.2166 41.4529,57.9996 30.4939,57.9996 C19.4189,57.9996 12.6409,55.2166 12.6409,53.7016 C12.6409,53.6556 12.6379,53.6106 12.6319,53.5656 L7.5379,16.3586 C11.9469,19.3936 21.4299,20.9996 30.4999,20.9996 C39.5559,20.9996 49.0229,19.3996 53.4409,16.3736 L50.8929,34.3526 Z M6.9999,12.4776 C7.0719,11.1616 14.6339,5.9996 30.4999,5.9996 C46.3639,5.9996 53.9269,11.1606 53.9999,12.4776 L53.9999,12.9266 C53.1299,15.8776 43.3299,18.9996 30.4999,18.9996 C17.6479,18.9996 7.8429,15.8676 6.9999,12.9126 L6.9999,12.4776 Z M55.9999,12.4996 C55.9999,9.0346 46.0659,3.9996 30.4999,3.9996 C14.9339,3.9996 4.9999,9.0346 4.9999,12.4996 L5.0939,13.2536 L10.6419,53.7776 C10.7749,58.3096 22.8609,59.9996 30.4939,59.9996 C39.9659,59.9996 50.0289,57.8216 50.1589,53.7806 L52.5549,36.8836 C53.8879,37.2026 54.9849,37.3656 55.8659,37.3656 C57.0489,37.3656 57.8489,37.0766 58.3339,36.4986 C58.7319,36.0246 58.8839,35.4506 58.7699,34.8396 C58.5109,33.4556 56.8679,31.9636 53.5219,30.0546 L55.8979,13.2926 L55.9999,12.4996 Z" id="Amazon-Simple-Storage-Service-Icon_64_Squid"></path>
        </g>
    </g>
</svg>
<text x="530" y="556" text-anchor="middle" font-family="Helvetica Neue, Helvetica, Arial, sans-serif" font-size="11.5" fill="#232F3E">S3 published</text>
<text x="530" y="570" text-anchor="middle" font-family="Helvetica Neue, Helvetica, Arial, sans-serif" font-size="11.5" fill="#232F3E">immutable releases</text>
<path d="M413 508 L497 508" fill="none" stroke="#6B7280" stroke-width="1.6"  marker-end="url(#arr)" />
<svg x="720" y="790" width="60" height="60" viewBox="0 0 80 80">
    <title>Icon-Architecture/64/Arch_Amazon-Simple-Email-Service_64</title>
    <defs>
        <linearGradient x1="0%" y1="100%" x2="100%" y2="0%" id="linearGradient-1">
            <stop stop-color="#BD0816" offset="0%"></stop>
            <stop stop-color="#FF5252" offset="100%"></stop>
        </linearGradient>
    </defs>
    <g id="Icon-Architecture/64/Arch_Amazon-Simple-Email-Service_64" stroke="none" stroke-width="1" fill="none" fill-rule="evenodd">
        <g id="Rectangle" fill="url(#linearGradient-1)">
            <rect x="0" y="0" width="80" height="80"></rect>
        </g>
        <path d="M57,60.999875 C57,59.373846 55.626,57.9998214 54,57.9998214 C52.374,57.9998214 51,59.373846 51,60.999875 C51,62.625904 52.374,63.9999286 54,63.9999286 C55.626,63.9999286 57,62.625904 57,60.999875 L57,60.999875 Z M40,59.9998571 C38.374,59.9998571 37,61.3738817 37,62.9999107 C37,64.6259397 38.374,65.9999643 40,65.9999643 C41.626,65.9999643 43,64.6259397 43,62.9999107 C43,61.3738817 41.626,59.9998571 40,59.9998571 L40,59.9998571 Z M26,57.9998214 C24.374,57.9998214 23,59.373846 23,60.999875 C23,62.625904 24.374,63.9999286 26,63.9999286 C27.626,63.9999286 29,62.625904 29,60.999875 C29,59.373846 27.626,57.9998214 26,57.9998214 L26,57.9998214 Z M28.605,42.9995536 L51.395,42.9995536 L43.739,36.1104305 L40.649,38.7584778 C40.463,38.9194807 40.23,38.9994821 39.999,38.9994821 C39.768,38.9994821 39.535,38.9194807 39.349,38.7584778 L36.26,36.1104305 L28.605,42.9995536 Z M27,28.1732888 L27,41.7545313 L34.729,34.7984071 L27,28.1732888 Z M51.297,26.9992678 L28.703,26.9992678 L39.999,36.6824408 L51.297,26.9992678 Z M53,41.7545313 L53,28.1732888 L45.271,34.7974071 L53,41.7545313 Z M59,60.999875 C59,63.7099234 56.71,65.9999643 54,65.9999643 C51.29,65.9999643 49,63.7099234 49,60.999875 C49,58.6308327 50.75,56.5837961 53,56.1057876 L53,52.9997321 L41,52.9997321 L41,58.1058233 C43.25,58.5838319 45,60.6308684 45,62.9999107 C45,65.7099591 42.71,68 40,68 C37.29,68 35,65.7099591 35,62.9999107 C35,60.6308684 36.75,58.5838319 39,58.1058233 L39,52.9997321 L27,52.9997321 L27,56.1057876 C29.25,56.5837961 31,58.6308327 31,60.999875 C31,63.7099234 28.71,65.9999643 26,65.9999643 C23.29,65.9999643 21,63.7099234 21,60.999875 C21,58.6308327 22.75,56.5837961 25,56.1057876 L25,51.9997143 C25,51.4477044 25.447,50.9996964 26,50.9996964 L39,50.9996964 L39,44.9995893 L26,44.9995893 C25.447,44.9995893 25,44.5515813 25,43.9995714 L25,25.99925 C25,25.4472401 25.447,24.9992321 26,24.9992321 L54,24.9992321 C54.553,24.9992321 55,25.4472401 55,25.99925 L55,43.9995714 C55,44.5515813 54.553,44.9995893 54,44.9995893 L41,44.9995893 L41,50.9996964 L54,50.9996964 C54.553,50.9996964 55,51.4477044 55,51.9997143 L55,56.1057876 C57.25,56.5837961 59,58.6308327 59,60.999875 L59,60.999875 Z M68,39.9995 C68,45.9066055 66.177,51.5597064 62.727,56.3447919 L61.104,55.174771 C64.307,50.7316916 66,45.4845979 66,39.9995 C66,25.664244 54.337,14.0000357 40.001,14.0000357 C25.664,14.0000357 14,25.664244 14,39.9995 C14,45.4845979 15.693,50.7316916 18.896,55.174771 L17.273,56.3447919 C13.823,51.5597064 12,45.9066055 12,39.9995 C12,24.5612243 24.561,12 39.999,12 C55.438,12 68,24.5612243 68,39.9995 L68,39.9995 Z" id="Amazon-Simple-Email-Service_Icon_64_Squid" fill="#FFFFFF"></path>
    </g>
</svg>
<text x="750" y="866" text-anchor="middle" font-family="Helvetica Neue, Helvetica, Arial, sans-serif" font-size="11.5" fill="#232F3E">SES</text>
<text x="750" y="880" text-anchor="middle" font-family="Helvetica Neue, Helvetica, Arial, sans-serif" font-size="11.5" fill="#232F3E">DKIM · SPF · DMARC</text>
<text x="750" y="894" text-anchor="middle" font-family="Helvetica Neue, Helvetica, Arial, sans-serif" font-size="11.5" fill="#232F3E">info@cinefolio.dev</text>
<svg x="933" y="790" width="54" height="54" viewBox="0 0 80 80">
    <!-- Generator: Sketch 64 (93537) - https://sketch.com -->
    <title>Icon-Architecture/64/Arch_Amazon-CloudWatch_64</title>
    <desc>Created with Sketch.</desc>
    <defs>
        <linearGradient x1="0%" y1="100%" x2="100%" y2="0%" id="linearGradient-1">
            <stop stop-color="#B0084D" offset="0%"></stop>
            <stop stop-color="#FF4F8B" offset="100%"></stop>
        </linearGradient>
    </defs>
    <g id="Icon-Architecture/64/Arch_Amazon-CloudWatch_64" stroke="none" stroke-width="1" fill="none" fill-rule="evenodd">
        <g id="Icon-Architecture-BG/64/Management-Governance" fill="url(#linearGradient-1)">
            <rect id="Rectangle" x="0" y="0" width="80" height="80"></rect>
        </g>
        <path d="M55.0592315,46.7773707 C55.0592315,42.8680281 51.8575588,39.6876305 47.9220646,39.6876305 C43.9865705,39.6876305 40.785903,42.8680281 40.785903,46.7773707 C40.785903,50.6867133 43.9865705,53.8671108 47.9220646,53.8671108 C51.8575588,53.8671108 55.0592315,50.6867133 55.0592315,46.7773707 M57.0697011,46.7773707 C57.0697011,51.7881194 52.9663327,55.8642207 47.9220646,55.8642207 C42.8788018,55.8642207 38.7754334,51.7881194 38.7754334,46.7773707 C38.7754334,41.7666219 42.8788018,37.6905206 47.9220646,37.6905206 C52.9663327,37.6905206 57.0697011,41.7666219 57.0697011,46.7773707 M65.5096522,60.4735504 L58.5011554,54.2026253 C57.9352082,54.9944794 57.2808004,55.7174332 56.5540156,56.3634982 L63.5524601,62.6334248 C64.1495696,63.1686502 65.0784065,63.1187225 65.6182176,62.5255808 C66.155013,61.9324392 66.1067617,61.010773 65.5096522,60.4735504 M47.9220646,57.6616197 C53.9645309,57.6616197 58.8801289,52.7786859 58.8801289,46.7773707 C58.8801289,40.7750569 53.9645309,35.8931217 47.9220646,35.8931217 C41.8806036,35.8931217 36.9650056,40.7750569 36.9650056,46.7773707 C36.9650056,52.7786859 41.8806036,57.6616197 47.9220646,57.6616197 M67.1119965,63.8626459 C66.4264264,64.6165549 65.47849,65 64.5285431,65 C63.7002296,65 62.8699057,64.708422 62.207456,64.1172774 L54.9305615,57.5987107 C52.9070239,58.8968321 50.505518,59.6587296 47.9220646,59.6587296 C40.7718297,59.6587296 34.9545361,53.8800921 34.9545361,46.7773707 C34.9545361,39.6746493 40.7718297,33.8960118 47.9220646,33.8960118 C55.0733048,33.8960118 60.8905985,39.6746493 60.8905985,46.7773707 C60.8905985,48.8154213 60.3990387,50.7366411 59.5465996,52.4511599 L66.8556616,58.9906963 C68.2750531,60.265851 68.3896499,62.4496907 67.1119965,63.8626459 M21.2803274,29.392529 C21.2803274,29.9117776 21.3124949,30.429029 21.3738143,30.9293051 C21.4089975,31.2138932 21.3205368,31.4984814 21.1295422,31.7131707 C20.9777518,31.8839236 20.7736891,31.9967603 20.550527,32.0347054 C18.0786547,32.6687878 14.0104695,34.5880104 14.0104695,40.3456782 C14.0104695,44.6933865 16.4240382,47.0929141 18.4495863,48.3411077 C19.1411878,48.7744806 19.9594489,49.0051468 20.8229456,49.0141338 L32.9450717,49.0251179 L32.9430613,51.0222278 L20.811888,51.0112437 C19.5664021,50.9982625 18.384246,50.6607509 17.3840374,50.0346569 C15.3765836,48.7974474 12,45.8896553 12,40.3456782 C12,33.66235 16.5999543,31.191925 19.3000149,30.319188 C19.2799102,30.0116331 19.2698579,29.702081 19.2698579,29.392529 C19.2698579,23.9324305 22.9982737,18.2696254 27.9420183,16.2215892 C33.7241287,13.8150717 39.8500294,15.0083449 44.3263399,19.4109737 C45.7135638,20.7749998 46.8545053,22.4316024 47.7300648,24.3478294 C48.9061895,23.3802296 50.355738,22.8460027 51.8836949,22.8460027 C54.8863312,22.8460027 58.2659305,25.1097268 58.8680661,30.0605622 C61.6797078,30.7046302 67.6206453,32.9553731 67.6206453,40.422567 C67.6206453,43.4042521 66.6797455,45.8666886 64.8230769,47.7419748 L63.3896121,46.3410022 C64.8632863,44.8531553 65.6101757,42.8620367 65.6101757,40.422567 C65.6101757,33.891019 60.1055101,32.2663701 57.737177,31.8719409 C57.4677741,31.827006 57.2295334,31.6752256 57.0757325,31.4515493 C56.9259525,31.2358614 56.8686541,30.9712444 56.9138897,30.7146157 C56.5851779,26.6604826 54.1605516,24.8431126 51.8836949,24.8431126 C50.4472144,24.8431126 49.1001998,25.5381069 48.1874466,26.7503526 C47.9652897,27.0439277 47.6044105,27.193711 47.2344841,27.139789 C46.8695838,27.085867 46.5629872,26.8362283 46.4373329,26.4917268 C45.6140456,24.2260057 44.4278686,22.3207628 42.9119745,20.8309188 C39.0327735,17.0154404 33.7281496,15.9809374 28.7170543,18.0649216 C24.5463352,19.7924217 21.2803274,24.7672224 21.2803274,29.392529" id="Amazon-CloudWatch_Icon_64_Squid" fill="#FFFFFF"></path>
    </g>
</svg>
<text x="960" y="860" text-anchor="middle" font-family="Helvetica Neue, Helvetica, Arial, sans-serif" font-size="11.5" fill="#232F3E">CloudWatch</text>
<text x="960" y="874" text-anchor="middle" font-family="Helvetica Neue, Helvetica, Arial, sans-serif" font-size="11.5" fill="#232F3E">alarms · dashboard</text>
<svg x="1063" y="790" width="54" height="54" viewBox="0 0 80 80">
    <!-- Generator: Sketch 64 (93537) - https://sketch.com -->
    <title>Icon-Architecture/64/Arch_AWS-Simple-Notification-Service_64</title>
    <desc>Created with Sketch.</desc>
    <defs>
        <linearGradient x1="0%" y1="100%" x2="100%" y2="0%" id="linearGradient-1">
            <stop stop-color="#B0084D" offset="0%"></stop>
            <stop stop-color="#FF4F8B" offset="100%"></stop>
        </linearGradient>
    </defs>
    <g id="Icon-Architecture/64/Arch_AWS-Simple-Notification-Service_64" stroke="none" stroke-width="1" fill="none" fill-rule="evenodd">
        <g id="Icon-Architecture-BG/64/Application-Integration" fill="url(#linearGradient-1)">
            <rect id="Rectangle" x="0" y="0" width="80" height="80"></rect>
        </g>
        <path d="M17,38 C18.103,38 19,38.897 19,40 C19,41.103 18.103,42 17,42 C15.897,42 15,41.103 15,40 C15,38.897 15.897,38 17,38 L17,38 Z M41,64 C29.314,64 19.289,55.466 17.194,43.98 C18.965,43.894 20.427,42.659 20.857,41 L27,41 L27,39 L20.857,39 C20.427,37.342 18.966,36.107 17.195,36.02 C19.285,24.71 29.511,16 41,16 C45.313,16 49.832,17.622 54.429,20.821 L55.571,19.179 C50.633,15.743 45.73,14 41,14 C28.27,14 16.949,23.865 15.063,36.521 C13.839,37.207 13,38.5 13,40 C13,41.5 13.839,42.793 15.063,43.478 C16.97,56.341 28.056,66 41,66 C46.407,66 51.942,64.157 56.585,60.811 L55.415,59.189 C51.11,62.292 45.991,64 41,64 L41,64 Z M30.101,36.442 C31.955,36.895 34.275,37 36,37 C37.642,37 39.823,36.905 41.629,36.506 L37.105,45.553 C37.036,45.691 37,45.845 37,46 L37,50.453 C36.199,50.964 34.833,51.812 34,51.986 L34,46 C34,45.868 33.974,45.737 33.923,45.615 L30.101,36.442 Z M36,33 C40.025,33 42.174,33.604 42.841,34 C42.174,34.396 40.025,35 36,35 C31.975,35 29.826,34.396 29.159,34 C29.826,33.604 31.975,33 36,33 L36,33 Z M33,54 L34,54 C34.043,54 34.086,53.997 34.128,53.992 C35.352,53.833 36.909,52.887 38.272,52.013 L38.535,51.845 C38.824,51.661 39,51.342 39,51 L39,46.236 L44.559,35.12 C44.833,34.801 45,34.434 45,34 C45,31.39 39.361,31 36,31 C32.639,31 27,31.39 27,34 C27,34.366 27.12,34.684 27.32,34.967 L32,46.2 L32,53 C32,53.552 32.447,54 33,54 L33,54 Z M62,53 C63.103,53 64,53.897 64,55 C64,56.103 63.103,57 62,57 C60.897,57 60,56.103 60,55 C60,53.897 60.897,53 62,53 L62,53 Z M62,23 C63.103,23 64,23.897 64,25 C64,26.103 63.103,27 62,27 C60.897,27 60,26.103 60,25 C60,23.897 60.897,23 62,23 L62,23 Z M64,38 C65.103,38 66,38.897 66,40 C66,41.103 65.103,42 64,42 C62.897,42 62,41.103 62,40 C62,38.897 62.897,38 64,38 L64,38 Z M54,41 L60.143,41 C60.589,42.72 62.142,44 64,44 C66.206,44 68,42.206 68,40 C68,37.794 66.206,36 64,36 C62.142,36 60.589,37.28 60.143,39 L54,39 L54,26 L58.143,26 C58.589,27.72 60.142,29 62,29 C64.206,29 66,27.206 66,25 C66,22.794 64.206,21 62,21 C60.142,21 58.589,22.28 58.143,24 L53,24 C52.447,24 52,24.448 52,25 L52,39 L45,39 L45,41 L52,41 L52,55 C52,55.552 52.447,56 53,56 L58.143,56 C58.589,57.72 60.142,59 62,59 C64.206,59 66,57.206 66,55 C66,52.794 64.206,51 62,51 C60.142,51 58.589,52.28 58.143,54 L54,54 L54,41 Z" id="AWS-Simple-Notification-Service_Icon_64_Squid" fill="#FFFFFF"></path>
    </g>
</svg>
<text x="1090" y="860" text-anchor="middle" font-family="Helvetica Neue, Helvetica, Arial, sans-serif" font-size="11.5" fill="#232F3E">SNS</text>
<text x="1090" y="874" text-anchor="middle" font-family="Helvetica Neue, Helvetica, Arial, sans-serif" font-size="11.5" fill="#232F3E">operator paging</text>
<svg x="1193" y="790" width="54" height="54" viewBox="0 0 80 80">
    <!-- Generator: Sketch 64 (93537) - https://sketch.com -->
    <title>Icon-Architecture/64/Arch_AWS-Systems-Manager_64</title>
    <desc>Created with Sketch.</desc>
    <defs>
        <linearGradient x1="0%" y1="100%" x2="100%" y2="0%" id="linearGradient-1">
            <stop stop-color="#B0084D" offset="0%"></stop>
            <stop stop-color="#FF4F8B" offset="100%"></stop>
        </linearGradient>
    </defs>
    <g id="Icon-Architecture/64/Arch_AWS-Systems-Manager_64" stroke="none" stroke-width="1" fill="none" fill-rule="evenodd">
        <g id="Icon-Architecture-BG/64/Management-Governance" fill="url(#linearGradient-1)">
            <rect id="Rectangle" x="0" y="0" width="80" height="80"></rect>
        </g>
        <path d="M47,54.998059 L60,54.998059 L60,56.9983576 L47,56.9983576 L47,58.9986562 L45,58.9986562 L45,56.9983576 L41,56.9983576 L41,54.998059 L45,54.998059 L45,53.9979097 L47,53.9979097 L47,54.998059 Z M51,48.9971632 L60,48.9971632 L60,50.9974618 L51,50.9974618 L51,52.9977604 L49,52.9977604 L49,50.9974618 L41,50.9974618 L41,48.9971632 L49,48.9971632 L49,47.9970139 L51,47.9970139 L51,48.9971632 Z M56,42.9962674 L60,42.9962674 L60,44.996566 L56,44.996566 L56,46.9968646 L54,46.9968646 L54,44.996566 L41,44.996566 L41,42.9962674 L54,42.9962674 L54,41.9961181 L56,41.9961181 L56,42.9962674 Z M21,46.9968646 L30,46.9968646 L30,48.9971632 L21,48.9971632 C19.745,48.9971632 18.404,48.6201069 17.413,47.9890127 C15.393,46.7098217 12,43.7153747 12,38.0415277 C12,31.1605005 16.665,28.6351235 19.38,27.7499913 L19.326,26.8338546 C19.324,21.1660085 23.074,15.3541409 28.046,13.2568278 C33.869,10.7814582 40.036,12.0076413 44.545,16.5373175 C45.944,17.9385267 47.096,19.6477818 47.978,21.6310779 C49.749,20.1558577 52.16,19.6507823 54.4,20.385892 C57.247,21.3200315 59.019,23.9514243 59.227,27.4939531 C62.065,28.1730545 68,30.5084031 68,38.1315411 C68,38.4165837 67.989,38.6916247 67.978,38.954664 L65.979,38.9016561 C65.989,38.6346162 66,38.3885795 66,38.1315411 C66,31.3975359 60.443,29.7062834 58.054,29.2922216 C57.784,29.2452146 57.546,29.0911916 57.394,28.8641577 C57.243,28.6391241 57.19,28.3630829 57.246,28.0980433 C57.217,25.1165982 55.956,23.0012824 53.776,22.2861757 C51.823,21.6430797 49.677,22.3521855 48.434,24.0444382 C48.214,24.3414825 47.853,24.4965057 47.482,24.4404973 C47.116,24.3874894 46.81,24.1354518 46.686,23.7863996 C45.853,21.4430498 44.656,19.4797567 43.129,17.9505284 C39.216,14.0189415 33.867,12.9547827 28.826,15.0991028 C24.618,16.8733676 21.324,22.0021333 21.324,26.7748458 L21.423,28.4290927 C21.451,28.9071641 21.136,29.3382284 20.671,29.4562461 C18.18,30.0903407 14,32.0486331 14,38.0415277 C14,42.5211964 16.438,45.0045672 18.485,46.2997605 C19.16,46.7308249 20.123,46.9968646 21,46.9968646 L21,46.9968646 Z M66,52.3176589 L64.236,52.2166438 C63.763,52.1916401 63.312,52.5176887 63.204,52.9957601 C62.866,54.4939838 62.278,55.9141958 61.456,57.2163902 C61.195,57.630452 61.271,58.1715328 61.637,58.4975814 L62.954,59.6717567 L59.673,62.9542468 L58.502,61.6410507 C58.176,61.2739959 57.633,61.1999849 57.222,61.4610238 C55.92,62.2831466 54.499,62.8722345 52.997,63.2112851 C52.521,63.3193012 52.191,63.7563665 52.22,64.2444394 L52.32,65.9997014 L47.68,65.9997014 L47.78,64.2424391 C47.809,63.7543662 47.479,63.317301 47.003,63.2092848 C45.505,62.8712344 44.084,62.2811463 42.78,61.4580234 C42.367,61.1959843 41.825,61.2709955 41.5,61.6380503 L40.326,62.9532466 L37.046,59.6717567 L38.361,58.4995817 C38.726,58.1735331 38.802,57.6324523 38.541,57.2193906 C37.72,55.9171962 37.132,54.4969842 36.794,52.9957601 C36.687,52.5176887 36.209,52.1916401 35.762,52.2166438 L34,52.3176589 L34,47.6769661 L35.768,47.7779812 C36.233,47.8039851 36.691,47.4769362 36.8,46.999865 C37.139,45.5046418 37.728,44.0864301 38.55,42.7852359 C38.811,42.371174 38.734,41.8290931 38.37,41.5040446 L37.046,40.3228683 L40.327,37.0413784 L41.508,38.3645759 C41.834,38.7286303 42.376,38.8036415 42.787,38.5436027 C44.087,37.7244804 45.505,37.1373927 47.003,36.7993423 C47.479,36.6913261 47.809,36.2542609 47.78,35.766188 L47.68,33.9949236 L52.32,33.9949236 L52.22,35.7681883 C52.191,36.2562612 52.521,36.6923263 52.997,36.8003424 C54.492,37.139393 55.909,37.7264807 57.211,38.5466031 C57.622,38.8076421 58.165,38.7316307 58.49,38.3675764 L59.673,37.0413784 L62.954,40.3228683 L61.633,41.5010441 C61.269,41.8270928 61.192,42.3681736 61.453,42.7822354 C62.275,44.0834297 62.864,45.5026415 63.202,46.999865 C63.31,47.4759361 63.763,47.8039851 64.234,47.7779812 L66,47.6769661 L66,52.3176589 Z M66.943,45.619659 L64.942,45.733676 C64.617,44.5885051 64.16,43.4873407 63.579,42.4451851 L65.076,41.1099858 C65.281,40.9269584 65.402,40.6679198 65.41,40.3918786 C65.418,40.1178377 65.312,39.8507978 65.117,39.6567688 L60.339,34.8780554 C60.145,34.6830263 59.868,34.5710096 59.604,34.5860118 C59.328,34.594013 59.069,34.714031 58.886,34.9190616 L57.546,36.4212858 C56.505,35.8411992 55.406,35.3861313 54.263,35.0600826 L54.377,33.0517828 C54.393,32.7767418 54.295,32.5077016 54.105,32.3076717 C53.917,32.1076419 53.654,31.994625 53.379,31.994625 L46.621,31.994625 C46.346,31.994625 46.083,32.1076419 45.895,32.3076717 C45.705,32.5077016 45.607,32.7767418 45.623,33.0517828 L45.737,35.0580823 C44.592,35.3831308 43.492,35.8391989 42.452,36.4182854 L41.114,34.9190616 C40.931,34.714031 40.672,34.594013 40.396,34.5860118 C40.113,34.5730099 39.855,34.6830263 39.661,34.8780554 L34.883,39.6567688 C34.688,39.8507978 34.582,40.1178377 34.59,40.3918786 C34.598,40.6669196 34.719,40.9269584 34.924,41.1099858 L36.424,42.4481855 C35.843,43.4903411 35.386,44.5895052 35.06,45.733676 L33.057,45.619659 C32.789,45.6016563 32.513,45.7026714 32.313,45.8906994 C32.113,46.0797277 32,46.3427669 32,46.617808 L32,53.376817 C32,53.6518581 32.113,53.9148973 32.313,54.1039255 C32.513,54.2919536 32.79,54.3899682 33.057,54.374966 L35.053,54.260949 C35.378,55.4091204 35.834,56.5112849 36.415,57.5544407 L34.924,58.8836391 C34.719,59.0666664 34.598,59.3267052 34.59,59.6017463 C34.582,59.8767873 34.688,60.1438272 34.883,60.3378562 L39.661,65.1165696 C39.855,65.3115987 40.138,65.4186146 40.396,65.4096133 C40.672,65.4016121 40.932,65.280594 41.114,65.0755634 L42.444,63.5833407 C43.487,64.1664277 44.59,64.6244961 45.736,64.9505448 L45.623,66.9428422 C45.607,67.2168831 45.705,67.4859233 45.895,67.6869533 C46.083,67.8869831 46.346,68 46.621,68 L53.379,68 C53.654,68 53.917,67.8869831 54.106,67.6869533 C54.295,67.4859233 54.393,67.2168831 54.377,66.9428422 L54.264,64.9525451 C55.412,64.6254962 56.515,64.168428 57.558,63.5863411 L58.886,65.0755634 C59.068,65.280594 59.328,65.4016121 59.604,65.4096133 C59.871,65.4216151 60.145,65.3115987 60.339,65.1165696 L65.117,60.3378562 C65.312,60.1438272 65.418,59.8767873 65.41,59.6017463 C65.402,59.3267052 65.281,59.0666664 65.075,58.8836391 L63.582,57.5524404 C64.163,56.5092846 64.619,55.4071201 64.945,54.260949 L66.943,54.374966 C67.213,54.3899682 67.487,54.2919536 67.687,54.1039255 C67.887,53.9148973 68,53.6518581 68,53.376817 L68,46.617808 C68,46.3427669 67.887,46.0797277 67.687,45.8906994 C67.487,45.7026714 67.214,45.6026564 66.943,45.619659 L66.943,45.619659 Z" id="AWS-Systems-Manager_Icon_64_Squid" fill="#FFFFFF"></path>
    </g>
</svg>
<text x="1220" y="860" text-anchor="middle" font-family="Helvetica Neue, Helvetica, Arial, sans-serif" font-size="11.5" fill="#232F3E">SSM</text>
<text x="1220" y="874" text-anchor="middle" font-family="Helvetica Neue, Helvetica, Arial, sans-serif" font-size="11.5" fill="#232F3E">secrets · kill switch</text>
<path d="M987 818 L1062 818" fill="none" stroke="#6B7280" stroke-width="1.6"  marker-end="url(#arr)" />
<svg x="1413" y="790" width="54" height="54" viewBox="0 0 128 128"><g fill-rule="evenodd"><path d="M77.941 44.5v36.836L46.324 62.918V26.082zm0 0" fill="#5c4ee5"/><path d="M81.41 81.336l31.633-18.418V26.082L81.41 44.5zm0 0" fill="#4040b2"/><path d="M11.242 42.36L42.86 60.776V23.941L11.242 5.523zm0 0M77.941 85.375L46.324 66.957v36.82l31.617 18.418zm0 0" fill="#5c4ee5"/></g></svg>
<text x="1440" y="860" text-anchor="middle" font-family="Helvetica Neue, Helvetica, Arial, sans-serif" font-size="11.5" fill="#232F3E">Deploy role</text>
<text x="1440" y="874" text-anchor="middle" font-family="Helvetica Neue, Helvetica, Arial, sans-serif" font-size="11.5" fill="#232F3E">OIDC · no keys</text>
<g stroke="#545B64" stroke-width="2.4" fill="none">
    <circle cx="111" cy="142" r="8"/><path d="M97 174 q14 -18 28 0"/>
    <circle cx="131" cy="139" r="8"/><path d="M117 171 q14 -18 28 0"/>
  </g>
<text x="120" y="194" text-anchor="middle" font-family="Helvetica Neue, Helvetica, Arial, sans-serif" font-size="12" font-weight="600" fill="#232F3E">Creator</text>
<text x="120" y="208" text-anchor="middle" font-family="Helvetica Neue, Helvetica, Arial, sans-serif" font-size="12" font-weight="600" fill="#232F3E">studio console</text>
<g stroke="#545B64" stroke-width="2.4" fill="none">
    <circle cx="111" cy="492" r="8"/><path d="M97 524 q14 -18 28 0"/>
    <circle cx="131" cy="489" r="8"/><path d="M117 521 q14 -18 28 0"/>
  </g>
<text x="120" y="544" text-anchor="middle" font-family="Helvetica Neue, Helvetica, Arial, sans-serif" font-size="12" font-weight="600" fill="#232F3E">Visitor</text>
<text x="120" y="558" text-anchor="middle" font-family="Helvetica Neue, Helvetica, Arial, sans-serif" font-size="12" font-weight="600" fill="#232F3E">{slug}.cinefolio.dev</text>
<svg x="93" y="660" width="54" height="54" viewBox="0 0 128 128"><path fill="#FFF" d="m115.679 69.288-15.591-8.94-2.689-1.163-63.781.436v32.381h82.061z"/><path fill="#F38020" d="M87.295 89.022c.763-2.617.472-5.015-.8-6.796-1.163-1.635-3.125-2.58-5.488-2.689l-44.737-.581c-.291 0-.545-.145-.691-.363s-.182-.509-.109-.8c.145-.436.581-.763 1.054-.8l45.137-.581c5.342-.254 11.157-4.579 13.192-9.885l2.58-6.723c.109-.291.145-.581.073-.872-2.906-13.158-14.644-22.97-28.672-22.97-12.938 0-23.913 8.359-27.838 19.952a13.35 13.35 0 0 0-9.267-2.58c-6.215.618-11.193 5.597-11.811 11.811-.145 1.599-.036 3.162.327 4.615C10.104 70.051 2 78.337 2 88.549c0 .909.073 1.817.182 2.726a.895.895 0 0 0 .872.763h82.57c.472 0 .909-.327 1.054-.8l.617-2.216z"/><path fill="#FAAE40" d="M101.542 60.275c-.4 0-.836 0-1.236.036-.291 0-.545.218-.654.509l-1.744 6.069c-.763 2.617-.472 5.015.8 6.796 1.163 1.635 3.125 2.58 5.488 2.689l9.522.581c.291 0 .545.145.691.363.145.218.182.545.109.8-.145.436-.581.763-1.054.8l-9.924.582c-5.379.254-11.157 4.579-13.192 9.885l-.727 1.853c-.145.363.109.727.509.727h34.089c.4 0 .763-.254.872-.654.581-2.108.909-4.325.909-6.614 0-13.447-10.975-24.422-24.458-24.422"/></svg>
<text x="120" y="730" text-anchor="middle" font-family="Helvetica Neue, Helvetica, Arial, sans-serif" font-size="11.5" fill="#232F3E">Cloudflare</text>
<text x="120" y="744" text-anchor="middle" font-family="Helvetica Neue, Helvetica, Arial, sans-serif" font-size="11.5" fill="#232F3E">DNS + inbound email</text>
<svg x="93" y="850" width="54" height="54" viewBox="0 0 128 128"><path fill="#2088ff" d="M26.666 0C11.97 0 0 11.97 0 26.666c0 12.87 9.181 23.651 21.334 26.13v37.87c0 11.77 9.68 21.334 21.332 21.334h.195c1.302 9.023 9.1 16 18.473 16C71.612 128 80 119.612 80 109.334s-8.388-18.668-18.666-18.668c-9.372 0-17.17 6.977-18.473 16h-.195c-8.737 0-16-7.152-16-16V63.779a18.514 18.514 0 0 0 13.24 5.555h2.955c1.303 9.023 9.1 16 18.473 16 9.372 0 17.169-6.977 18.47-16h11.057c1.303 9.023 9.1 16 18.473 16 10.278 0 18.666-8.39 18.666-18.668C128 56.388 119.612 48 109.334 48c-9.373 0-17.171 6.977-18.473 16H79.805c-1.301-9.023-9.098-16-18.471-16s-17.171 6.977-18.473 16h-2.955c-6.433 0-11.793-4.589-12.988-10.672 14.58-.136 26.416-12.05 26.416-26.662C53.334 11.97 41.362 0 26.666 0zm0 5.334A21.292 21.292 0 0 1 48 26.666 21.294 21.294 0 0 1 26.666 48 21.292 21.292 0 0 1 5.334 26.666 21.29 21.29 0 0 1 26.666 5.334zm-5.215 7.541C18.67 12.889 16 15.123 16 18.166v17.043c0 4.043 4.709 6.663 8.145 4.533l13.634-8.455c3.257-2.02 3.274-7.002.032-9.045l-13.635-8.59a5.024 5.024 0 0 0-2.725-.777zm-.117 5.291 13.635 8.588-13.635 8.455V18.166zm40 35.168a13.29 13.29 0 0 1 13.332 13.332A13.293 13.293 0 0 1 61.334 80 13.294 13.294 0 0 1 48 66.666a13.293 13.293 0 0 1 13.334-13.332zm48 0a13.29 13.29 0 0 1 13.332 13.332A13.293 13.293 0 0 1 109.334 80 13.294 13.294 0 0 1 96 66.666a13.293 13.293 0 0 1 13.334-13.332zm-42.568 6.951a2.667 2.667 0 0 0-1.887.78l-6.3 6.294-2.093-2.084a2.667 2.667 0 0 0-3.771.006 2.667 2.667 0 0 0 .008 3.772l3.974 3.96a2.667 2.667 0 0 0 3.766-.001l8.185-8.174a2.667 2.667 0 0 0 .002-3.772 2.667 2.667 0 0 0-1.884-.78zm48 0a2.667 2.667 0 0 0-1.887.78l-6.3 6.294-2.093-2.084a2.667 2.667 0 0 0-3.771.006 2.667 2.667 0 0 0 .008 3.772l3.974 3.96a2.667 2.667 0 0 0 3.766-.001l8.185-8.174a2.667 2.667 0 0 0 .002-3.772 2.667 2.667 0 0 0-1.884-.78zM61.334 96a13.293 13.293 0 0 1 13.332 13.334 13.29 13.29 0 0 1-13.332 13.332A13.293 13.293 0 0 1 48 109.334 13.294 13.294 0 0 1 61.334 96zM56 105.334c-2.193 0-4 1.807-4 4 0 2.195 1.808 4 4 4s4-1.805 4-4c0-2.193-1.807-4-4-4zm10.666 0c-2.193 0-4 1.807-4 4 0 2.195 1.808 4 4 4s4-1.805 4-4c0-2.193-1.807-4-4-4zM56 108c.75 0 1.334.585 1.334 1.334 0 .753-.583 1.332-1.334 1.332-.75 0-1.334-.58-1.334-1.332 0-.75.585-1.334 1.334-1.334zm10.666 0c.75 0 1.334.585 1.334 1.334 0 .753-.583 1.332-1.334 1.332-.75 0-1.332-.58-1.332-1.332 0-.75.583-1.334 1.332-1.334z"/><path fill="#79b8ff" d="M109.334 90.666c-9.383 0-17.188 6.993-18.477 16.031a2.667 2.667 0 0 0-.265-.011l-2.7.09a2.667 2.667 0 0 0-2.578 2.751 2.667 2.667 0 0 0 2.752 2.578l2.7-.087a2.667 2.667 0 0 0 .097-.006C92.17 121.029 99.965 128 109.334 128c10.278 0 18.666-8.388 18.666-18.666s-8.388-18.668-18.666-18.668zm0 5.334a13.293 13.293 0 0 1 13.332 13.334 13.29 13.29 0 0 1-13.332 13.332A13.293 13.293 0 0 1 96 109.334 13.294 13.294 0 0 1 109.334 96z"/></svg>
<text x="120" y="920" text-anchor="middle" font-family="Helvetica Neue, Helvetica, Arial, sans-serif" font-size="11.5" fill="#232F3E">GitHub Actions</text>
<text x="120" y="934" text-anchor="middle" font-family="Helvetica Neue, Helvetica, Arial, sans-serif" font-size="11.5" fill="#232F3E">plan on PR · apply on main</text>
<rect x="1615" y="130" width="200" height="180" fill="none" stroke="#8A93A2" stroke-width="1.2" stroke-dasharray="5,4"/>
<text x="1627" y="152" font-family="Helvetica Neue, Helvetica, Arial, sans-serif" font-size="13.5" font-weight="600" fill="#545B64">Build agent</text>
<rect x="1687" y="168" width="56" height="56" rx="10" fill="#232F3E"/>
<text x="1715" y="203" text-anchor="middle" font-family="Helvetica Neue, Helvetica, Arial, sans-serif" font-size="20" font-weight="800" fill="#D9A441">AI</text>
<text x="1715" y="242" text-anchor="middle" font-family="Helvetica Neue, Helvetica, Arial, sans-serif" font-size="11.5" fill="#232F3E">AI director</text>
<text x="1715" y="255.5" text-anchor="middle" font-family="Helvetica Neue, Helvetica, Arial, sans-serif" font-size="11.5" fill="#232F3E">webhook + task token</text>
<text x="1715" y="269" text-anchor="middle" font-family="Helvetica Neue, Helvetica, Arial, sans-serif" font-size="11.5" fill="#232F3E">delivers the cut</text>
<path d="M168 165 L347 165" fill="none" stroke="#6B7280" stroke-width="1.6"  marker-end="url(#arr)" />
<circle cx="300" cy="151" r="12.5" fill="#111827"/>
<text x="300" y="155.5" text-anchor="middle" font-family="Helvetica Neue, Helvetica, Arial, sans-serif" font-size="13" font-weight="700" fill="#fff">1</text>
<path d="M455 362 L455 408 L640 408 L640 175 L697 175" fill="none" stroke="#6B7280" stroke-width="1.6"  marker-end="url(#arr)" />
<circle cx="640" cy="300" r="12.5" fill="#111827"/>
<text x="640" y="304.5" text-anchor="middle" font-family="Helvetica Neue, Helvetica, Arial, sans-serif" font-size="13" font-weight="700" fill="#fff">2</text>
<path d="M890 234 L890 462" fill="none" stroke="#6B7280" stroke-width="1.6"  marker-end="url(#arr)" marker-start="url(#arrS)"/>
<circle cx="890" cy="424" r="12.5" fill="#111827"/>
<text x="890" y="428.5" text-anchor="middle" font-family="Helvetica Neue, Helvetica, Arial, sans-serif" font-size="13" font-weight="700" fill="#fff">4</text>
<path d="M874 156 L874 104 L618 104 L618 455 L530 455 L530 474" fill="none" stroke="#6B7280" stroke-width="1.6"  marker-end="url(#arr)" />
<circle cx="618" cy="348" r="12.5" fill="#111827"/>
<text x="618" y="352.5" text-anchor="middle" font-family="Helvetica Neue, Helvetica, Arial, sans-serif" font-size="13" font-weight="700" fill="#fff">5</text>
<text x="606" y="424" text-anchor="end" font-family="Helvetica Neue, Helvetica, Arial, sans-serif" font-size="10.5" fill="#545B64">publish = atomic pointer flip</text>
<path d="M168 512 L347 512" fill="none" stroke="#6B7280" stroke-width="1.6"  marker-end="url(#arr)" />
<circle cx="300" cy="498" r="12.5" fill="#111827"/>
<text x="300" y="502.5" text-anchor="middle" font-family="Helvetica Neue, Helvetica, Arial, sans-serif" font-size="13" font-weight="700" fill="#fff">6</text>
<path d="M923 175 L1087 175" fill="none" stroke="#6B7280" stroke-width="1.6"  marker-end="url(#arr)" />
<circle cx="1005" cy="161" r="12.5" fill="#111827"/>
<text x="1005" y="165.5" text-anchor="middle" font-family="Helvetica Neue, Helvetica, Arial, sans-serif" font-size="13" font-weight="700" fill="#fff">7</text>
<path d="M1418 326 L1598 326 L1598 196 L1683 196" fill="none" stroke="#6B7280" stroke-width="1.6"  marker-end="url(#arr)" />
<circle cx="1598" cy="262" r="12.5" fill="#111827"/>
<text x="1598" y="266.5" text-anchor="middle" font-family="Helvetica Neue, Helvetica, Arial, sans-serif" font-size="13" font-weight="700" fill="#fff">9</text>
<path d="M1687 182 L1598 182 L1598 90 L730 90 L730 156" fill="none" stroke="#6B7280" stroke-width="1.6" stroke-dasharray="6,5" marker-end="url(#arr)" />
<circle cx="1170" cy="90" r="12.5" fill="#111827"/>
<text x="1170" y="94.5" text-anchor="middle" font-family="Helvetica Neue, Helvetica, Arial, sans-serif" font-size="13" font-weight="700" fill="#fff">10</text>
<text x="1170" y="74" text-anchor="middle" font-family="Helvetica Neue, Helvetica, Arial, sans-serif" font-size="10.5" fill="#545B64">POST /callback resumes the state machine (SendTaskSuccess)</text>
<path d="M1402 410 L1402 720 L783 720 L783 786" fill="none" stroke="#6B7280" stroke-width="1.6"  marker-end="url(#arr)" />
<circle cx="1402" cy="560" r="12.5" fill="#111827"/>
<text x="1402" y="564.5" text-anchor="middle" font-family="Helvetica Neue, Helvetica, Arial, sans-serif" font-size="13" font-weight="700" fill="#fff">11</text>
<path d="M1378 410 L1378 660 L1090 660 L1090 786" fill="none" stroke="#6B7280" stroke-width="1.6"  marker-end="url(#arr)" />
<circle cx="1240" cy="646" r="12.5" fill="#111827"/>
<text x="1240" y="650.5" text-anchor="middle" font-family="Helvetica Neue, Helvetica, Arial, sans-serif" font-size="13" font-weight="700" fill="#fff">12</text>
<path d="M717 820 L252 820" fill="none" stroke="#6B7280" stroke-width="1.6" stroke-dasharray="6,5" marker-end="url(#arr)" />
<text x="485" y="806" text-anchor="middle" font-family="Helvetica Neue, Helvetica, Arial, sans-serif" font-size="10.5" fill="#545B64">premiere · welcome · order emails</text>
<path d="M147 877 L220 877 L220 985 L1300 985 L1300 830 L1413 830" fill="none" stroke="#6B7280" stroke-width="1.6"  marker-end="url(#arr)" />
<circle cx="760" cy="985" r="12.5" fill="#111827"/>
<text x="760" y="989.5" text-anchor="middle" font-family="Helvetica Neue, Helvetica, Arial, sans-serif" font-size="13" font-weight="700" fill="#fff">14</text>
<path d="M147 700 L248 700" fill="none" stroke="#6B7280" stroke-width="1.6" stroke-dasharray="6,5" marker-end="url(#arr)" />
<text x="200" y="688" text-anchor="middle" font-family="Helvetica Neue, Helvetica, Arial, sans-serif" font-size="10.5" fill="#545B64">DNS</text>
</svg>